# File produced by Open Asset Import Library (http://www.assimp.sf.net)
# (assimp v3.1.59755898)

mtllib pergamino.mtl

# vertex positions
v 55.224922 0.190615 32.409027
v -3.461742 0.106141 32.409027
v -3.461742 0.105256 34.835354
v 55.224922 0.190615 34.835354
v 56.899612 0.591435 32.409027
v 56.899612 0.591435 34.835354
v 58.434917 1.371036 32.409027
v 58.434917 1.371036 34.835354
v 59.746582 2.486597 32.409027
v 59.746582 2.486597 34.835354
v 60.762550 3.876833 32.409027
v 60.762550 3.876833 34.835354
v 61.427010 5.465369 32.409027
v 61.427010 5.465369 34.835354
v 61.703445 7.164937 32.409027
v 61.703445 7.164937 34.835354
v 61.577522 8.878143 32.409027
v 61.577522 8.878143 34.835354
v 60.649673 11.289326 32.409027
v 60.649666 11.289326 34.835354
v 59.594658 12.645010 32.409027
v 59.594658 12.645010 34.835354
v 58.250217 13.720846 32.409027
v 58.250217 13.720846 34.835354
v 55.006439 14.804739 32.409027
v 51.623436 14.302542 34.835354
v 51.623432 14.302542 32.409027
v 50.112125 13.477381 32.409027
v 50.112125 13.477381 34.835354
v 48.834404 12.323093 32.409027
v 48.834404 12.323093 34.835354
v 47.860458 10.903100 32.409027
v 47.860458 10.903100 34.835354
v 47.243805 9.295406 32.409027
v 47.243805 9.295405 34.835354
v 47.018314 7.588332 32.409027
v 47.018314 7.588332 34.835354
v 47.196369 5.875661 32.409027
v 47.196369 5.875660 34.835354
v 47.768196 4.251480 32.409027
v 47.768196 4.251480 34.835354
v 48.702377 2.805017 32.409027
v 48.702377 2.805017 34.835354
v 49.947594 1.615738 32.409027
v 49.947594 1.615738 34.835354
v 51.450096 0.741551 32.409027
v 51.450096 0.741551 34.835354
v -3.461746 0.000000 34.835354
v 55.241413 0.051589 34.835354
v 56.947929 0.460039 34.835354
v 58.512493 1.254496 34.835354
v 59.849155 2.391315 34.835354
v 60.884491 3.808045 34.835354
v 61.561607 5.426854 34.835354
v 61.843307 7.158810 34.835354
v 61.714127 8.908766 34.835354
v 60.771568 11.358180 34.835354
v 59.694336 12.743315 34.835354
v 58.324276 13.839653 34.835354
v 55.018681 14.944201 32.409027
v 51.571209 14.432434 34.835354
v 50.031097 13.591547 34.835354
v 48.729027 12.415266 34.835354
v 47.736523 10.968212 34.835354
v 47.108112 9.329879 34.835354
v 46.878323 7.590274 34.835354
v 47.059776 5.844964 34.835354
v 47.642502 4.189832 34.835354
v 48.594486 2.715805 34.835354
v 49.863430 1.503861 34.835354
v 51.379623 0.620582 34.835354
v -31.237944 0.145656 34.835354
v -31.237944 0.146122 32.409027
v -62.148411 0.190615 32.409027
v -62.148411 0.190615 34.835354
v -62.164894 0.051589 32.409027
v -31.245745 0.024417 32.409027
v -31.245745 0.024417 34.835354
v -62.164894 0.051589 34.835354
v -63.823093 0.591435 34.835354
v -63.871414 0.460039 34.835354
v -65.358406 1.371036 34.835354
v -65.435982 1.254496 34.835354
v -66.670059 2.486597 34.835354
v -66.772636 2.391315 34.835354
v -67.686035 3.876833 34.835354
v -67.807968 3.808045 34.835354
v -68.350487 5.465369 34.835354
v -68.485092 5.426854 34.835354
v -68.626923 7.164937 34.835354
v -68.766792 7.158810 34.835354
v -68.500999 8.878143 34.835354
v -68.637611 8.908766 34.835354
v -67.573158 11.289326 34.835354
v -67.695045 11.358180 34.835354
v -66.518143 12.645010 34.835354
v -66.617813 12.743315 34.835354
v -65.173698 13.720846 34.835354
v -65.247765 13.839653 34.835354
v -63.615761 14.454185 34.835354
v -63.660130 14.586969 34.835354
v -61.929920 14.804737 34.835354
v -61.942165 14.944201 34.835354
v -60.208786 14.753247 32.409027
v -60.188244 14.891729 32.409027
v -57.035610 13.477381 34.835354
v -56.954578 13.591547 34.835354
v -55.757889 12.323093 34.835354
v -55.652508 12.415266 34.835354
v -54.783939 10.903100 34.835354
v -54.660004 10.968212 34.835354
v -54.167286 9.295405 34.835354
v -54.031593 9.329879 34.835354
v -53.941795 7.588332 34.835354
v -53.801804 7.590274 34.835354
v -54.119850 5.875660 34.835354
v -53.983257 5.844964 34.835354
v -54.691681 4.251480 34.835354
v -54.565987 4.189832 34.835354
v -55.625862 2.805017 34.835354
v -55.517963 2.715805 34.835354
v -56.871082 1.615738 34.835354
v -56.786911 1.503861 34.835354
v -58.373581 0.741551 32.409027
v -58.303112 0.620582 32.409027
v -58.303104 0.620582 34.835354
v -58.373581 0.741551 34.835354
v 55.241413 0.051589 32.409027
v -3.461750 0.000000 32.409027
v -3.461746 0.000000 0.000000
v 55.241413 0.051589 0.000000
v 56.947929 0.460039 32.409027
v 56.947929 0.460039 0.000000
v 58.512493 1.254496 32.409027
v 58.512497 1.254496 0.000000
v 59.849155 2.391315 32.409027
v 59.849155 2.391315 0.000000
v 60.884491 3.808045 32.409027
v 60.884491 3.808045 0.000000
v 61.561607 5.426854 32.409027
v 61.561607 5.426854 0.000000
v 61.843307 7.158810 32.409027
v 61.843307 7.158810 0.000000
v 61.714127 8.908766 32.409027
v 61.714127 8.908766 0.000000
v 60.771568 11.358180 32.409027
v 60.771568 11.358180 0.000000
v 59.694336 12.743315 32.409027
v 59.694332 12.743315 0.000000
v 58.324276 13.839653 32.409027
v 58.324276 13.839653 0.000000
v 56.736652 14.586969 0.000000
v 55.018684 14.944201 0.000000
v 53.264751 14.891729 0.000000
v 51.571209 14.432434 32.409027
v 51.571209 14.432433 0.000000
v 50.031097 13.591547 32.409027
v 50.031097 13.591547 0.000000
v 48.729027 12.415266 32.409027
v 48.729027 12.415266 0.000000
v 47.736523 10.968212 32.409027
v 47.736523 10.968212 0.000000
v 47.108112 9.329879 32.409027
v 47.108112 9.329879 0.000000
v 46.878323 7.590274 32.409027
v 46.878323 7.590274 0.000000
v 47.059776 5.844964 32.409027
v 47.059776 5.844964 0.000000
v 47.642502 4.189832 32.409027
v 47.642502 4.189832 0.000000
v 48.594486 2.715805 32.409027
v 48.594486 2.715805 0.000000
v 49.863430 1.503861 32.409027
v 49.863430 1.503861 0.000000
v 51.379623 0.620582 32.409027
v 51.379623 0.620582 0.000000
v 51.450096 0.741551 0.000000
v -63.823093 0.591435 32.409027
v -62.148411 0.190615 0.000000
v -63.823093 0.591435 0.000000
v -65.358406 1.371036 32.409027
v -65.358406 1.371036 0.000000
v -66.670059 2.486597 32.409027
v -66.670059 2.486597 0.000000
v -67.686035 3.876833 32.409027
v -67.686035 3.876833 0.000000
v -68.350487 5.465369 32.409027
v -68.350487 5.465369 0.000000
v -68.626923 7.164937 32.409027
v -68.626923 7.164937 0.000000
v -68.500999 8.878143 32.409027
v -68.500999 8.878143 0.000000
v -67.573158 11.289326 32.409027
v -67.573158 11.289326 0.000000
v -66.518143 12.645010 32.409027
v -66.518143 12.645010 0.000000
v -65.173698 13.720846 32.409027
v -65.173698 13.720846 0.000000
v -63.615761 14.454185 32.409027
v -63.615761 14.454185 0.000000
v -61.929920 14.804739 32.409027
v -61.929920 14.804737 0.000000
v -60.208778 14.753247 0.000000
v -58.546913 14.302542 0.000000
v -57.035610 13.477381 32.409027
v -57.035610 13.477381 0.000000
v -55.757889 12.323093 32.409027
v -55.757889 12.323093 0.000000
v -54.783939 10.903100 32.409027
v -54.783939 10.903100 0.000000
v -54.167286 9.295405 32.409027
v -54.167286 9.295405 0.000000
v -53.941795 7.588332 32.409027
v -53.941795 7.588332 0.000000
v -54.119850 5.875660 32.409027
v -54.119850 5.875660 0.000000
v -54.691681 4.251480 32.409027
v -54.691681 4.251480 0.000000
v -55.625862 2.805017 32.409027
v -55.625854 2.805017 0.000000
v -56.871082 1.615738 32.409027
v -56.871082 1.615738 0.000000
v -58.373573 0.741551 0.000000
v -63.871422 0.460039 32.409027
v -63.871414 0.460039 0.000000
v -62.164894 0.051589 0.000000
v -65.435982 1.254496 32.409027
v -65.435982 1.254496 0.000000
v -66.772636 2.391315 32.409027
v -66.772636 2.391315 0.000000
v -67.807976 3.808045 32.409027
v -67.807968 3.808045 0.000000
v -68.485100 5.426854 32.409027
v -68.485092 5.426854 0.000000
v -68.766792 7.158811 32.409027
v -68.766792 7.158810 0.000000
v -68.637619 8.908767 32.409027
v -68.637611 8.908766 0.000000
v -67.695053 11.358181 32.409027
v -67.695045 11.358180 0.000000
v -66.617813 12.743316 32.409027
v -66.617813 12.743315 0.000000
v -65.247765 13.839653 32.409027
v -65.247765 13.839653 0.000000
v -63.660137 14.586969 32.409027
v -63.660130 14.586969 0.000000
v -61.942165 14.944202 32.409027
v -61.942165 14.944201 0.000000
v -60.188236 14.891729 0.000000
v -58.494694 14.432434 0.000000
v -56.954586 13.591547 32.409027
v -56.954578 13.591547 0.000000
v -55.652519 12.415267 32.409027
v -55.652508 12.415266 0.000000
v -54.660011 10.968212 32.409027
v -54.660004 10.968212 0.000000
v -54.031601 9.329880 32.409027
v -54.031593 9.329879 0.000000
v -53.801804 7.590274 32.409027
v -53.801804 7.590274 0.000000
v -53.983257 5.844964 32.409027
v -53.983257 5.844964 0.000000
v -54.565987 4.189832 32.409027
v -54.565987 4.189832 0.000000
v -55.517963 2.715805 32.409027
v -55.517963 2.715805 0.000000
v -56.786911 1.503861 32.409027
v -56.786911 1.503861 0.000000
v -58.303104 0.620582 0.000000
v -3.461742 0.107563 -28.511337
v 55.224922 0.190615 -28.511337
v 55.224922 0.190615 -34.835354
v -3.461742 0.105256 -34.835354
v 56.899612 0.591435 -28.511337
v 56.899612 0.591435 -34.835354
v 58.434917 1.371036 -28.511337
v 58.434917 1.371036 -34.835354
v 59.746582 2.486597 -28.511337
v 59.746582 2.486597 -34.835354
v 60.762550 3.876833 -28.511337
v 60.762550 3.876833 -34.835354
v 61.427010 5.465369 -28.511337
v 61.427010 5.465369 -34.835354
v 61.703445 7.164937 -28.511337
v 61.703445 7.164937 -34.835354
v 61.577522 8.878143 -28.511337
v 61.577522 8.878143 -34.835354
v 60.649666 11.289326 -28.511337
v 60.649666 11.289326 -34.835354
v 59.594658 12.645010 -28.511337
v 59.594658 12.645010 -34.835354
v 58.250217 13.720846 -28.511337
v 58.250217 13.720846 -34.835354
v 56.692280 14.454185 -28.511337
v 56.692280 14.454185 -34.835354
v 55.006439 14.804737 -28.511337
v 53.285305 14.753247 -34.835354
v 53.285305 14.753247 -28.511337
v 51.623432 14.302542 -28.511337
v 51.623436 14.302542 -34.835354
v 50.112125 13.477381 -28.511337
v 50.112125 13.477381 -34.835354
v 48.834404 12.323093 -28.511337
v 48.834404 12.323093 -34.835354
v 47.860458 10.903100 -28.511337
v 47.860458 10.903100 -34.835354
v 47.243805 9.295405 -28.511337
v 47.243805 9.295405 -34.835354
v 47.018314 7.588332 -32.137253
v 47.196369 5.875660 -34.835354
v 47.196369 5.875660 -28.511337
v 47.768196 4.251480 -28.511337
v 47.768196 4.251480 -34.835354
v 48.702377 2.805017 -28.511337
v 48.702377 2.805017 -34.835354
v 49.947594 1.615738 -28.511337
v 49.947594 1.615738 -34.835354
v 51.450096 0.741551 -28.511337
v 51.450096 0.741551 -34.835354
v 55.241413 0.051589 -34.835354
v -3.461746 0.000000 -34.835354
v 56.947929 0.460039 -34.835354
v 58.512493 1.254496 -34.835354
v 59.849155 2.391315 -34.835354
v 60.884491 3.808045 -34.835354
v 61.561607 5.426854 -34.835354
v 61.843307 7.158810 -34.835354
v 61.714127 8.908766 -34.835354
v 60.771568 11.358180 -34.835354
v 59.694336 12.743315 -34.835354
v 58.324276 13.839653 -34.835354
v 56.736649 14.586969 -34.835354
v 55.018681 14.944201 -28.511337
v 53.264751 14.891729 -34.835354
v 51.571209 14.432434 -34.835354
v 50.031097 13.591547 -34.835354
v 48.729027 12.415266 -34.835354
v 47.736523 10.968212 -34.835354
v 47.108112 9.329879 -34.835354
v 46.878323 7.590274 -32.137253
v 47.059776 5.844964 -34.835354
v 47.642502 4.189832 -34.835354
v 48.594486 2.715805 -34.835354
v 49.863430 1.503861 -34.835354
v 51.379623 0.620582 -34.835354
v -62.148411 0.190615 -28.511337
v -31.237944 0.146871 -28.511337
v -31.237944 0.145656 -34.835354
v -62.148411 0.190615 -34.835354
v -31.245745 0.024417 -34.835354
v -31.245745 0.024417 -28.511337
v -62.164894 0.051589 -28.511337
v -62.164894 0.051589 -34.835354
v -26.843422 0.020548 -34.835354
v -26.836859 0.139255 -34.835354
v -63.871414 0.460039 -34.835354
v -63.823093 0.591435 -34.835354
v -65.435982 1.254496 -34.835354
v -65.358406 1.371036 -34.835354
v -66.772636 2.391315 -34.835354
v -66.670059 2.486597 -34.835354
v -67.807968 3.808045 -34.835354
v -67.686035 3.876833 -34.835354
v -68.485092 5.426854 -34.835354
v -68.350487 5.465369 -34.835354
v -68.766792 7.158810 -34.835354
v -68.626923 7.164937 -34.835354
v -68.637611 8.908766 -34.835354
v -68.500999 8.878143 -34.835354
v -67.695045 11.358180 -34.835354
v -67.573158 11.289326 -34.835354
v -66.617813 12.743315 -34.835354
v -66.518143 12.645010 -34.835354
v -65.247765 13.839653 -34.835354
v -65.173698 13.720846 -34.835354
v -63.660130 14.586969 -34.835354
v -63.615761 14.454185 -34.835354
v -61.942165 14.944201 -34.835354
v -61.929920 14.804737 -34.835354
v -60.188236 14.891729 -34.835354
v -60.208786 14.753247 -34.835354
v -58.494694 14.432434 -34.835354
v -58.546913 14.302542 -34.835354
v -56.954578 13.591547 -34.835354
v -57.035610 13.477381 -34.835354
v -55.652508 12.415266 -34.835354
v -55.757889 12.323093 -34.835354
v -54.660004 10.968212 -34.835354
v -54.783939 10.903100 -34.835354
v -54.031593 9.329879 -34.835354
v -54.167286 9.295405 -34.835354
v -53.801804 7.590274 -34.835354
v -53.941795 7.588332 -34.835354
v -53.983257 5.844964 -34.835354
v -54.119850 5.875660 -34.835354
v -54.565987 4.189832 -34.835354
v -54.691681 4.251480 -34.835354
v -55.517963 2.715805 -34.835354
v -55.625862 2.805017 -34.835354
v -56.786911 1.503861 -34.835354
v -56.871082 1.615738 -34.835354
v -58.303104 0.620582 -34.835354
v -58.303104 0.620582 -28.511337
v -58.373581 0.741551 -28.511337
v -58.373581 0.741551 -34.835354
v -3.461746 0.000000 -28.511337
v 55.241413 0.051589 -28.511337
v 56.947929 0.460039 -28.511337
v 58.512493 1.254496 -28.511337
v 59.849155 2.391315 -28.511337
v 60.884491 3.808045 -28.511337
v 61.561607 5.426854 -28.511337
v 61.843307 7.158811 -28.511337
v 61.714127 8.908766 -28.511337
v 60.771568 11.358180 -28.511337
v 59.694336 12.743315 -28.511337
v 58.324276 13.839653 -28.511337
v 56.736649 14.586969 -28.511337
v 53.264751 14.891729 -28.511337
v 51.571209 14.432434 -28.511337
v 50.031097 13.591547 -28.511337
v 48.729027 12.415266 -28.511337
v 47.736523 10.968212 -28.511337
v 47.108112 9.329879 -28.511337
v 47.059776 5.844964 -28.511337
v 47.642502 4.189832 -28.511337
v 48.594486 2.715805 -28.511337
v 49.863430 1.503861 -28.511337
v 51.379623 0.620582 -28.511337
v -63.823093 0.591435 -28.511337
v -65.358406 1.371036 -28.511337
v -66.670059 2.486597 -28.511337
v -67.686043 3.876833 -28.511337
v -68.350487 5.465369 -28.511337
v -68.626923 7.164937 -28.511337
v -68.500992 8.878143 -28.511337
v -67.573158 11.289326 -28.511337
v -66.518127 12.645010 -28.511337
v -65.173698 13.720846 -28.511337
v -63.615761 14.454185 -28.511337
v -61.929920 14.804737 -28.511337
v -60.208786 14.753247 -28.511337
v -58.546913 14.302542 -28.511337
v -57.035618 13.477381 -28.511337
v -55.757889 12.323093 -28.511337
v -54.783939 10.903100 -28.511337
v -54.167286 9.295405 -28.511337
v -53.941795 7.588332 -28.511337
v -54.119858 5.875660 -28.511337
v -54.691681 4.251480 -28.511337
v -55.625862 2.805017 -28.511337
v -56.871082 1.615738 -28.511337
v -63.871414 0.460039 -28.511337
v -65.435982 1.254496 -28.511337
v -66.772644 2.391315 -28.511337
v -67.807968 3.808045 -28.511337
v -68.485092 5.426854 -28.511337
v -68.766792 7.158811 -28.511337
v -68.637611 8.908766 -28.511337
v -67.695045 11.358180 -28.511337
v -66.617813 12.743315 -28.511337
v -65.247765 13.839653 -28.511337
v -63.660130 14.586969 -28.511337
v -61.942165 14.944201 -28.511337
v -60.188236 14.891729 -28.511337
v -58.494694 14.432434 -28.511337
v -56.954578 13.591547 -28.511337
v -55.652508 12.415266 -28.511337
v -54.660004 10.968212 -28.511337
v -54.031601 9.329879 -28.511337
v -53.801804 7.590274 -28.511337
v -53.983257 5.844964 -28.511337
v -54.565987 4.189832 -28.511337
v -55.517963 2.715805 -28.511337
v -56.786911 1.503861 -28.511337
v 55.224922 0.190615 0.000000
v -3.461742 0.117961 0.000000
v 56.899612 0.591435 0.000000
v 58.434917 1.371036 0.000000
v 59.746586 2.486597 0.000000
v 60.762550 3.876833 0.000000
v 61.427010 5.465369 0.000000
v 61.703445 7.164937 0.000000
v 61.577522 8.878143 0.000000
v 60.649673 11.289326 0.000000
v 59.594658 12.645010 0.000000
v 58.250217 13.720846 0.000000
v 56.692280 14.454185 0.000000
v 55.006439 14.804737 0.000000
v 53.285305 14.753247 0.000000
v 51.623432 14.302542 0.000000
v 50.112125 13.477381 0.000000
v 48.834404 12.323093 0.000000
v 47.860458 10.903100 0.000000
v 47.243805 9.295405 0.000000
v 47.018314 7.588332 0.000000
v 47.196369 5.875660 0.000000
v 47.768200 4.251480 0.000000
v 48.702381 2.805017 0.000000
v 49.947594 1.615738 0.000000
v -26.836859 0.146900 0.000000
v -26.836859 0.139787 32.409027
v -31.245745 0.024417 0.000000
v -29.028679 0.142941 32.409027
v -29.035864 0.022475 32.409027
v -29.028679 0.149613 0.000000
v -29.028679 0.143744 -28.511337
v -31.237944 0.152349 0.000000
v -29.035864 0.022475 -34.835354
v -29.035864 0.022475 -28.511337
v -29.035864 0.022475 0.000000
v -29.028679 0.142442 -34.835354
v -26.836859 0.139255 34.835354
v -26.843422 0.020548 34.835354
v -26.843422 0.020548 32.409027
v -26.836859 0.140642 -28.511337
v -26.843422 0.020548 -28.511337
v -26.843422 0.020548 0.000000

# UV coordinates
vt 0.303838 0.591337
vt 0.555734 0.591337
vt 0.555734 0.601752
vt 0.303838 0.601752
vt 0.174194 0.591337
vt 0.174194 0.601752
vt 0.166803 0.591337
vt 0.166803 0.601752
vt 0.159412 0.591337
vt 0.159412 0.601752
vt 0.152022 0.591337
vt 0.152022 0.601752
vt 0.144631 0.591337
vt 0.144631 0.601752
vt 0.137240 0.591337
vt 0.137240 0.601752
vt 0.129858 0.591337
vt 0.129858 0.601752
vt 0.120627 0.591337
vt 0.120627 0.601752
vt 0.111396 0.591337
vt 0.111396 0.601752
vt 0.104014 0.591337
vt 0.104014 0.601752
vt 0.081843 0.601752
vt 0.074452 0.601752
vt 0.074452 0.591337
vt 0.067061 0.591337
vt 0.067061 0.601752
vt 0.059671 0.591337
vt 0.059671 0.601752
vt 0.052280 0.591337
vt 0.052280 0.601752
vt 0.044890 0.591337
vt 0.044890 0.601752
vt 0.037499 0.591337
vt 0.037499 0.601752
vt 0.030109 0.591337
vt 0.030109 0.601752
vt 0.022718 0.591337
vt 0.022718 0.601752
vt 0.015328 0.591337
vt 0.015328 0.601752
vt 0.007937 0.591337
vt 0.007937 0.601752
vt 0.000500 0.591337
vt 0.000500 0.601752
vt 0.000500 0.613892
vt 0.000500 0.612671
vt 0.107201 0.612671
vt 0.107201 0.613892
vt 0.121106 0.613892
vt 0.121106 0.612671
vt 0.134793 0.613892
vt 0.134793 0.612671
vt 0.148240 0.613892
vt 0.148240 0.612671
vt 0.161446 0.613892
vt 0.161446 0.612671
vt 0.174427 0.613892
vt 0.174427 0.612671
vt 0.187207 0.613892
vt 0.187207 0.612671
vt 0.202985 0.613892
vt 0.202985 0.612671
vt 0.218706 0.613892
vt 0.218706 0.612671
vt 0.231282 0.613892
vt 0.231282 0.612671
vt 0.243894 0.613892
vt 0.243894 0.612671
vt 0.282196 0.613892
vt 0.282196 0.612671
vt 0.295135 0.613892
vt 0.295135 0.612671
vt 0.308144 0.613892
vt 0.308144 0.612671
vt 0.321203 0.613892
vt 0.321203 0.612671
vt 0.334289 0.613892
vt 0.334289 0.612671
vt 0.347389 0.613892
vt 0.347389 0.612671
vt 0.360498 0.613892
vt 0.360498 0.612671
vt 0.373612 0.613892
vt 0.373612 0.612671
vt 0.386726 0.613892
vt 0.386726 0.612671
vt 0.399841 0.613892
vt 0.399841 0.612671
vt 0.413020 0.613892
vt 0.413020 0.612671
vt 0.426261 0.613892
vt 0.426261 0.612671
vt 0.674953 0.601752
vt 0.674953 0.591337
vt 0.807624 0.591337
vt 0.807624 0.601752
vt 0.311095 0.289134
vt 0.443805 0.289135
vt 0.443805 0.299549
vt 0.311094 0.299548
vt 0.328687 0.604922
vt 0.383827 0.604922
vt 0.383827 0.605858
vt 0.328687 0.605858
vt 0.296288 0.605858
vt 0.296288 0.604922
vt 0.284603 0.605858
vt 0.284603 0.604922
vt 0.272855 0.605858
vt 0.272855 0.604922
vt 0.261035 0.605858
vt 0.261035 0.604922
vt 0.249139 0.605858
vt 0.249139 0.604922
vt 0.237167 0.605858
vt 0.237167 0.604922
vt 0.225115 0.605858
vt 0.225115 0.604922
vt 0.209947 0.605858
vt 0.209947 0.604922
vt 0.194709 0.605858
vt 0.194709 0.604922
vt 0.182414 0.605858
vt 0.182414 0.604922
vt 0.170002 0.605858
vt 0.170002 0.604922
vt 0.157462 0.605858
vt 0.157462 0.604922
vt 0.131957 0.605858
vt 0.144780 0.604922
vt 0.119007 0.605858
vt 0.119007 0.604922
vt 0.105950 0.605858
vt 0.105950 0.604922
vt 0.092818 0.605858
vt 0.092818 0.604922
vt 0.079644 0.605858
vt 0.079644 0.604922
vt 0.066450 0.605858
vt 0.066450 0.604922
vt 0.053250 0.605858
vt 0.053250 0.604922
vt 0.040053 0.605858
vt 0.040053 0.604922
vt 0.026863 0.605858
vt 0.026863 0.604922
vt 0.013680 0.605858
vt 0.013680 0.604922
vt 0.008318 0.765075
vt 0.013490 0.765066
vt 0.013422 0.775315
vt 0.008249 0.775324
vt 0.000500 0.605858
vt 0.000500 0.604922
vt 0.815010 0.289138
vt 0.563059 0.289136
vt 0.563058 0.150030
vt 0.815010 0.150028
vt 0.822541 0.289138
vt 0.822541 0.150028
vt 0.830072 0.289138
vt 0.830072 0.150028
vt 0.837603 0.289138
vt 0.837603 0.150028
vt 0.845134 0.289138
vt 0.845134 0.150028
vt 0.852666 0.289138
vt 0.852666 0.150028
vt 0.860197 0.289138
vt 0.860197 0.150028
vt 0.869595 0.289138
vt 0.869595 0.150028
vt 0.878993 0.289138
vt 0.878993 0.150028
vt 0.886524 0.289138
vt 0.886524 0.150028
vt 0.894055 0.289138
vt 0.894055 0.150028
vt 0.916650 0.289138
vt 0.901587 0.150028
vt 0.909118 0.150028
vt 0.916650 0.150028
vt 0.924181 0.289138
vt 0.924181 0.150028
vt 0.931713 0.289138
vt 0.931713 0.150028
vt 0.939245 0.289138
vt 0.939245 0.150028
vt 0.946776 0.289138
vt 0.946776 0.150028
vt 0.954308 0.289138
vt 0.954308 0.150028
vt 0.961840 0.289138
vt 0.961840 0.150028
vt 0.969372 0.289138
vt 0.969372 0.150028
vt 0.976904 0.289138
vt 0.976904 0.150028
vt 0.984436 0.289138
vt 0.984436 0.150028
vt 0.991968 0.289138
vt 0.991968 0.150028
vt 0.999500 0.289138
vt 0.999500 0.150028
vt 0.006450 0.908474
vt 0.001279 0.908424
vt 0.000500 0.771526
vt 0.005672 0.771576
vt 0.815015 0.591337
vt 0.807624 0.452231
vt 0.815015 0.452231
vt 0.822405 0.591337
vt 0.822405 0.452231
vt 0.829796 0.591337
vt 0.829796 0.452231
vt 0.837186 0.591337
vt 0.837186 0.452231
vt 0.844572 0.591337
vt 0.844572 0.452231
vt 0.852879 0.591337
vt 0.852879 0.452231
vt 0.862110 0.591337
vt 0.862110 0.452231
vt 0.870416 0.591337
vt 0.870416 0.452231
vt 0.877803 0.591337
vt 0.877803 0.452231
vt 0.885193 0.591337
vt 0.885193 0.452231
vt 0.892584 0.591337
vt 0.892584 0.452231
vt 0.899974 0.591337
vt 0.899974 0.452231
vt 0.914756 0.591337
vt 0.907365 0.452231
vt 0.914756 0.452231
vt 0.922146 0.591337
vt 0.922146 0.452231
vt 0.929537 0.591337
vt 0.929537 0.452231
vt 0.936928 0.591337
vt 0.936928 0.452231
vt 0.944318 0.591337
vt 0.944318 0.452231
vt 0.951709 0.591337
vt 0.951709 0.452231
vt 0.959100 0.591337
vt 0.959100 0.452231
vt 0.966490 0.591337
vt 0.966490 0.452231
vt 0.973899 0.591337
vt 0.973899 0.452231
vt 0.981342 0.591337
vt 0.981342 0.452231
vt 0.988803 0.591337
vt 0.988803 0.452231
vt 0.181349 0.289134
vt 0.181349 0.150032
vt 0.311094 0.150032
vt 0.173817 0.289134
vt 0.173817 0.150032
vt 0.166286 0.289134
vt 0.166286 0.150032
vt 0.158754 0.289134
vt 0.158754 0.150032
vt 0.151222 0.289134
vt 0.151222 0.150032
vt 0.143691 0.289134
vt 0.143691 0.150032
vt 0.136159 0.289134
vt 0.136159 0.150032
vt 0.126760 0.289134
vt 0.126760 0.150032
vt 0.117361 0.289134
vt 0.117361 0.150032
vt 0.109829 0.289134
vt 0.109829 0.150032
vt 0.102297 0.289134
vt 0.102297 0.150032
vt 0.094764 0.289134
vt 0.094764 0.150032
vt 0.087232 0.299548
vt 0.087232 0.150032
vt 0.079700 0.150032
vt 0.072167 0.289134
vt 0.072167 0.150032
vt 0.064635 0.289134
vt 0.064635 0.150032
vt 0.057102 0.289134
vt 0.057102 0.150032
vt 0.049570 0.289134
vt 0.049570 0.150032
vt 0.042037 0.289134
vt 0.042037 0.150032
vt 0.034504 0.289134
vt 0.034504 0.150032
vt 0.026972 0.289134
vt 0.026972 0.150032
vt 0.019439 0.289134
vt 0.019439 0.150032
vt 0.011907 0.289134
vt 0.011907 0.150032
vt 0.004375 0.289134
vt 0.004375 0.150032
vt 0.555734 0.329856
vt 0.303838 0.329856
vt 0.303838 0.302713
vt 0.555734 0.302712
vt 0.174194 0.329856
vt 0.174194 0.302713
vt 0.166803 0.329856
vt 0.166803 0.302713
vt 0.159412 0.329856
vt 0.159412 0.302713
vt 0.152022 0.329856
vt 0.152022 0.302713
vt 0.144631 0.329856
vt 0.144631 0.302713
vt 0.137240 0.329856
vt 0.137240 0.302713
vt 0.129858 0.329856
vt 0.129858 0.302713
vt 0.120627 0.329856
vt 0.120627 0.302713
vt 0.111396 0.329856
vt 0.111396 0.302713
vt 0.104014 0.329856
vt 0.104014 0.302713
vt 0.096624 0.329856
vt 0.096624 0.302713
vt 0.089233 0.329856
vt 0.081843 0.302713
vt 0.081843 0.329856
vt 0.074452 0.329856
vt 0.074452 0.302713
vt 0.067061 0.329856
vt 0.067061 0.302713
vt 0.059671 0.329856
vt 0.059671 0.302713
vt 0.052280 0.329856
vt 0.052280 0.302713
vt 0.044890 0.329856
vt 0.044890 0.302713
vt 0.037499 0.329856
vt 0.030109 0.302713
vt 0.030109 0.329856
vt 0.022718 0.329856
vt 0.022718 0.302713
vt 0.015328 0.329856
vt 0.015328 0.302713
vt 0.007937 0.329856
vt 0.007937 0.302713
vt 0.000500 0.329856
vt 0.000500 0.302713
vt 0.107201 0.616546
vt 0.000500 0.616546
vt 0.000500 0.617766
vt 0.107201 0.617766
vt 0.121106 0.617766
vt 0.121106 0.616546
vt 0.134793 0.617766
vt 0.134793 0.616546
vt 0.148240 0.617766
vt 0.148240 0.616546
vt 0.161446 0.617766
vt 0.161446 0.616546
vt 0.174427 0.617766
vt 0.174427 0.616546
vt 0.187207 0.617766
vt 0.187207 0.616546
vt 0.202985 0.617766
vt 0.202985 0.616546
vt 0.218706 0.617766
vt 0.218706 0.616546
vt 0.231282 0.617766
vt 0.231282 0.616546
vt 0.243894 0.617766
vt 0.243894 0.616546
vt 0.256574 0.617766
vt 0.256574 0.616546
vt 0.269340 0.617766
vt 0.269340 0.616546
vt 0.282196 0.617766
vt 0.282196 0.616546
vt 0.295135 0.617766
vt 0.295135 0.616546
vt 0.308144 0.617766
vt 0.308144 0.616546
vt 0.321203 0.617766
vt 0.321203 0.616546
vt 0.334289 0.617766
vt 0.334289 0.616546
vt 0.347389 0.617766
vt 0.347389 0.616546
vt 0.360498 0.617766
vt 0.360498 0.616546
vt 0.373612 0.617766
vt 0.373612 0.616546
vt 0.386726 0.617766
vt 0.386726 0.616546
vt 0.399841 0.617766
vt 0.399841 0.616546
vt 0.413020 0.617766
vt 0.413020 0.616546
vt 0.426261 0.617766
vt 0.426261 0.616546
vt 0.807624 0.329855
vt 0.674953 0.329855
vt 0.674953 0.302712
vt 0.807624 0.302711
vt 0.443805 0.000502
vt 0.443805 0.027647
vt 0.311094 0.027646
vt 0.311094 0.000500
vt 0.433376 0.608797
vt 0.391678 0.608797
vt 0.391678 0.609733
vt 0.433376 0.609733
vt 0.328687 0.608797
vt 0.296288 0.608797
vt 0.296288 0.609733
vt 0.328687 0.609733
vt 0.284603 0.608797
vt 0.284603 0.609733
vt 0.272855 0.608797
vt 0.272855 0.609733
vt 0.261035 0.608797
vt 0.261035 0.609733
vt 0.249139 0.608797
vt 0.249139 0.609733
vt 0.237167 0.608797
vt 0.237167 0.609733
vt 0.225115 0.608797
vt 0.225115 0.609733
vt 0.209947 0.608797
vt 0.209947 0.609733
vt 0.194709 0.608797
vt 0.194709 0.609733
vt 0.182414 0.608797
vt 0.182414 0.609733
vt 0.170002 0.608797
vt 0.170002 0.609733
vt 0.157462 0.608797
vt 0.157462 0.609733
vt 0.144780 0.608797
vt 0.144780 0.609733
vt 0.131957 0.608797
vt 0.131957 0.609733
vt 0.119007 0.608797
vt 0.119007 0.609733
vt 0.105950 0.608797
vt 0.105950 0.609733
vt 0.092818 0.608797
vt 0.092818 0.609733
vt 0.079644 0.608797
vt 0.079644 0.609733
vt 0.066450 0.608797
vt 0.066450 0.609733
vt 0.053250 0.608797
vt 0.053250 0.609733
vt 0.040053 0.608797
vt 0.040053 0.609733
vt 0.026863 0.608797
vt 0.026863 0.609733
vt 0.013680 0.608797
vt 0.013680 0.609733
vt 0.021171 0.775315
vt 0.021350 0.748602
vt 0.016177 0.748611
vt 0.015998 0.775324
vt 0.000500 0.608797
vt 0.000500 0.609733
vt 0.563058 0.027649
vt 0.815010 0.027651
vt 0.822541 0.027651
vt 0.830072 0.027651
vt 0.837603 0.027651
vt 0.845134 0.027651
vt 0.852666 0.027651
vt 0.860197 0.027651
vt 0.869595 0.027651
vt 0.878993 0.027651
vt 0.886524 0.027651
vt 0.894055 0.027651
vt 0.901587 0.027651
vt 0.909118 0.000507
vt 0.916650 0.027651
vt 0.924181 0.027651
vt 0.931713 0.027651
vt 0.939245 0.027651
vt 0.946776 0.027651
vt 0.954308 0.027651
vt 0.961840 0.000507
vt 0.969372 0.027651
vt 0.976904 0.027651
vt 0.984436 0.027651
vt 0.991968 0.027651
vt 0.999500 0.027651
vt 0.000500 0.620421
vt 0.001185 0.740854
vt 0.006357 0.740904
vt 0.005672 0.620471
vt 0.815015 0.329855
vt 0.822405 0.329855
vt 0.829796 0.329855
vt 0.837186 0.329855
vt 0.844572 0.329855
vt 0.852879 0.329855
vt 0.862110 0.329855
vt 0.870416 0.329855
vt 0.877803 0.329855
vt 0.885193 0.329855
vt 0.892584 0.329855
vt 0.899974 0.329855
vt 0.907365 0.329855
vt 0.914756 0.329855
vt 0.922146 0.329855
vt 0.929537 0.329855
vt 0.936928 0.329855
vt 0.944318 0.329855
vt 0.951709 0.329855
vt 0.959100 0.329855
vt 0.966490 0.329855
vt 0.973899 0.329855
vt 0.981342 0.329855
vt 0.988803 0.329855
vt 0.181349 0.027646
vt 0.173817 0.027646
vt 0.166286 0.027646
vt 0.158754 0.027646
vt 0.151222 0.027646
vt 0.143691 0.027646
vt 0.136159 0.027646
vt 0.126760 0.027646
vt 0.117361 0.027646
vt 0.109829 0.027646
vt 0.102297 0.027646
vt 0.094764 0.027646
vt 0.087232 0.027646
vt 0.079700 0.027646
vt 0.072167 0.027646
vt 0.064635 0.027646
vt 0.057102 0.027646
vt 0.049570 0.027646
vt 0.042037 0.027646
vt 0.034504 0.027646
vt 0.026972 0.027646
vt 0.019439 0.027646
vt 0.011907 0.027646
vt 0.004375 0.027646
vt 0.303838 0.452231
vt 0.555734 0.452231
vt 0.174194 0.452231
vt 0.166803 0.452231
vt 0.159412 0.452231
vt 0.152022 0.452231
vt 0.144631 0.452231
vt 0.137240 0.452231
vt 0.129858 0.452231
vt 0.120627 0.452231
vt 0.111396 0.452231
vt 0.104014 0.452231
vt 0.096624 0.452231
vt 0.089233 0.452231
vt 0.081843 0.452231
vt 0.074452 0.452231
vt 0.067061 0.452231
vt 0.059671 0.452231
vt 0.052280 0.452231
vt 0.044890 0.452231
vt 0.037499 0.452231
vt 0.030109 0.452231
vt 0.022718 0.452231
vt 0.015328 0.452231
vt 0.007937 0.452231
vt 0.000500 0.452231
vt 0.656063 0.452231
vt 0.656063 0.591337
vt 0.443805 0.150031
vt 0.009233 0.628179
vt 0.014406 0.628169
vt 0.815010 0.299552
vt 0.563058 0.299550
vt 0.822541 0.299552
vt 0.830072 0.299552
vt 0.837603 0.299552
vt 0.845134 0.299552
vt 0.852666 0.299552
vt 0.860197 0.299552
vt 0.869595 0.299552
vt 0.878993 0.299552
vt 0.886524 0.299552
vt 0.894055 0.299552
vt 0.924181 0.299552
vt 0.931713 0.299552
vt 0.939245 0.299552
vt 0.946776 0.299552
vt 0.954308 0.299552
vt 0.961840 0.299552
vt 0.969372 0.299552
vt 0.976904 0.299552
vt 0.984436 0.299552
vt 0.991968 0.299552
vt 0.999500 0.299552
vt 0.006509 0.918723
vt 0.001337 0.918673
vt 0.815015 0.601752
vt 0.822405 0.601752
vt 0.829796 0.601752
vt 0.837186 0.601752
vt 0.844572 0.601752
vt 0.852879 0.601752
vt 0.862110 0.601752
vt 0.870416 0.601752
vt 0.877803 0.601752
vt 0.885193 0.601752
vt 0.892584 0.601752
vt 0.899974 0.601752
vt 0.922146 0.601752
vt 0.929537 0.601752
vt 0.936928 0.601752
vt 0.944318 0.601752
vt 0.951709 0.601752
vt 0.959100 0.601752
vt 0.966490 0.601752
vt 0.973899 0.601752
vt 0.981342 0.601752
vt 0.988803 0.601752
vt 0.181349 0.299548
vt 0.173817 0.299548
vt 0.166286 0.299548
vt 0.158754 0.299548
vt 0.151222 0.299548
vt 0.143691 0.299548
vt 0.136159 0.299548
vt 0.126760 0.299548
vt 0.117361 0.299548
vt 0.109829 0.299548
vt 0.102297 0.299548
vt 0.094764 0.299548
vt 0.072167 0.299548
vt 0.064635 0.299548
vt 0.057102 0.299548
vt 0.049570 0.299548
vt 0.042037 0.299548
vt 0.034504 0.299548
vt 0.026972 0.299548
vt 0.019439 0.299548
vt 0.011907 0.299548
vt 0.004375 0.299548
vt 0.665471 0.601752
vt 0.453290 0.289135
vt 0.387768 0.604922
vt 0.387768 0.605858
vt 0.665471 0.452231
vt 0.665471 0.329855
vt 0.674953 0.452231
vt 0.453290 0.000502
vt 0.453290 0.027647
vt 0.383827 0.609733
vt 0.383827 0.608797
vt 0.453290 0.150031
vt 0.387768 0.608797
vt 0.387768 0.609733
vt 0.656063 0.601752
vt 0.462700 0.299549
vt 0.462700 0.289135
vt 0.433376 0.604922
vt 0.433376 0.605858
vt 0.391678 0.605858
vt 0.391678 0.604922
vt 0.656063 0.329855
vt 0.563058 0.000503
vt 0.462700 0.027648
vt 0.462700 0.000502
vt 0.462700 0.150031
vt 0.022155 0.628169
vt 0.016982 0.628179
vt 0.815010 0.000507
vt 0.822541 0.000507
vt 0.830072 0.000507
vt 0.837603 0.000507
vt 0.845134 0.000507
vt 0.852666 0.000507
vt 0.860197 0.000507
vt 0.869595 0.000507
vt 0.878993 0.000507
vt 0.886524 0.000507
vt 0.894055 0.000507
vt 0.901587 0.000507
vt 0.916650 0.000507
vt 0.924181 0.000507
vt 0.931713 0.000507
vt 0.939245 0.000507
vt 0.946776 0.000507
vt 0.954308 0.000507
vt 0.969372 0.000507
vt 0.976904 0.000507
vt 0.984436 0.000507
vt 0.991968 0.000507
vt 0.999500 0.000507
vt 0.001337 0.767567
vt 0.006509 0.767618
vt 0.815015 0.302711
vt 0.822405 0.302711
vt 0.829796 0.302711
vt 0.837186 0.302711
vt 0.844572 0.302711
vt 0.852879 0.302711
vt 0.862110 0.302711
vt 0.870416 0.302711
vt 0.877803 0.302711
vt 0.885193 0.302711
vt 0.892584 0.302711
vt 0.899974 0.302711
vt 0.907365 0.302711
vt 0.914756 0.302711
vt 0.922146 0.302711
vt 0.929537 0.302711
vt 0.936928 0.302711
vt 0.944318 0.302711
vt 0.951709 0.302711
vt 0.959100 0.302711
vt 0.966490 0.302711
vt 0.973899 0.302711
vt 0.981342 0.302711
vt 0.988803 0.302711
vt 0.181349 0.000500
vt 0.173817 0.000500
vt 0.166286 0.000500
vt 0.158754 0.000500
vt 0.151222 0.000500
vt 0.143691 0.000500
vt 0.136159 0.000500
vt 0.126760 0.000500
vt 0.117361 0.000500
vt 0.109829 0.000500
vt 0.102297 0.000500
vt 0.094764 0.000500
vt 0.087232 0.000500
vt 0.079700 0.000500
vt 0.072167 0.000500
vt 0.064635 0.000500
vt 0.057102 0.000500
vt 0.049570 0.000500
vt 0.042037 0.000500
vt 0.034504 0.000500
vt 0.026972 0.000500
vt 0.019439 0.000500
vt 0.011907 0.000500
vt 0.004375 0.000500
vt 0.665471 0.302712
vt 0.656063 0.302712

# vertex normals
vn -0.117883 0.993028 0.000092
vn 0.000000 1.000000 0.000237
vn 0.000000 1.000000 0.000237
vn -0.117909 0.993024 0.000092
vn -0.345140 0.938551 -0.000000
vn -0.345140 0.938551 0.000000
vn -0.554129 0.832431 -0.000000
vn -0.554129 0.832431 0.000000
vn -0.732674 0.680580 0.000000
vn -0.732673 0.680580 0.000000
vn -0.870967 0.491341 0.000000
vn -0.870967 0.491341 0.000000
vn -0.961413 0.275109 -0.000000
vn -0.961413 0.275109 -0.000000
vn -0.999035 0.043921 -0.000000
vn -0.999035 0.043921 -0.000000
vn -0.975820 -0.218578 -0.000000
vn -0.975820 -0.218578 -0.000000
vn -0.870623 -0.491952 -0.000000
vn -0.870623 -0.491951 -0.000000
vn -0.711882 -0.702299 -0.000000
vn -0.711883 -0.702299 -0.000000
vn -0.486885 -0.873465 -0.001052
vn -0.515990 -0.856595 -0.000000
vn -0.087443 -0.996165 -0.002978
vn 0.358866 -0.933389 -0.000000
vn 0.327268 -0.944931 -0.001052
vn 0.578773 -0.815489 -0.000000
vn 0.578773 -0.815489 -0.000000
vn 0.752697 -0.658367 -0.000000
vn 0.752697 -0.658367 -0.000000
vn 0.885270 -0.465077 -0.000000
vn 0.885270 -0.465077 -0.000000
vn 0.969210 -0.246237 -0.000000
vn 0.969210 -0.246237 -0.000000
vn 0.999904 -0.013869 -0.000000
vn 0.999904 -0.013869 -0.000000
vn 0.975666 0.219260 0.000000
vn 0.975666 0.219260 -0.000000
vn 0.897829 0.440344 0.000000
vn 0.897829 0.440344 0.000000
vn 0.770668 0.637237 0.000000
vn 0.770668 0.637237 0.000000
vn 0.600947 0.799289 0.000000
vn 0.600947 0.799289 -0.000000
vn 0.502895 0.864348 -0.000000
vn 0.502895 0.864348 -0.000000
vn 0.000000 -0.000000 1.000000
vn -0.292062 0.097592 0.951407
vn -0.278414 0.093031 0.955945
vn 0.014117 0.160815 0.986884
vn 0.014116 0.160815 0.986884
vn 0.304598 0.045217 0.951407
vn 0.290364 0.043104 0.955945
vn 0.001445 0.999999 0.000127
vn 0.001391 0.999999 0.000146
vn 0.117883 0.993028 0.000048
vn 0.117910 0.993024 0.000048
vn -0.117630 -0.993058 0.000000
vn -0.000879 -1.000000 0.000000
vn -0.000879 -1.000000 0.000000
vn -0.117630 -0.993058 0.000000
vn 0.390216 -0.024191 0.920405
vn 0.417379 -0.025875 0.908364
vn 0.449930 -0.013437 0.892963
vn 0.464255 -0.013865 0.885593
vn 0.159752 0.137948 0.977471
vn 0.233596 0.124809 0.964290
vn -0.285712 0.114870 0.951406
vn -0.272353 0.109499 0.955946
vn -0.864062 -0.503386 0.000001
vn -0.864062 -0.503386 0.000001
vn -0.864056 -0.503396 0.000001
vn -0.864056 -0.503396 0.000001
vn 0.117630 -0.993057 -0.000000
vn -0.000000 -1.000000 0.000000
vn -0.000000 -1.000000 -0.000000
vn 0.117630 -0.993057 -0.000000
vn 0.345142 -0.938550 -0.000000
vn 0.345142 -0.938550 -0.000000
vn 0.554129 -0.832431 -0.000000
vn 0.554129 -0.832431 -0.000000
vn 0.732673 -0.680580 0.000000
vn 0.732673 -0.680581 0.000000
vn 0.870967 -0.491341 0.000000
vn 0.870967 -0.491341 -0.000000
vn 0.961413 -0.275108 0.000000
vn 0.961413 -0.275108 -0.000000
vn 0.999042 -0.043763 -0.000000
vn 0.999042 -0.043762 -0.000000
vn 0.975785 0.218732 -0.000000
vn 0.975785 0.218732 0.000000
vn 0.870700 0.491814 -0.000000
vn 0.870700 0.491814 0.000000
vn 0.711993 0.702186 -0.000000
vn 0.711993 0.702186 0.000000
vn 0.486885 0.873465 0.001072
vn 0.512353 0.858774 0.001067
vn 0.087443 0.996165 0.003045
vn 0.299575 0.954072 0.001098
vn 0.087443 0.996170 -0.000000
vn -0.128779 0.991673 0.001098
vn -0.327268 0.944931 0.001072
vn -0.354905 0.934902 0.001067
vn -0.578773 0.815489 0.000000
vn -0.578773 0.815489 0.000000
vn -0.752697 0.658367 0.000000
vn -0.752697 0.658367 -0.000000
vn -0.885270 0.465077 -0.000000
vn -0.885270 0.465077 -0.000000
vn -0.969210 0.246237 -0.000000
vn -0.969210 0.246237 -0.000000
vn -0.999904 0.013870 0.000000
vn -0.999904 0.013870 0.000000
vn -0.975667 -0.219260 0.000000
vn -0.975667 -0.219260 0.000000
vn -0.897829 -0.440344 0.000000
vn -0.897829 -0.440344 -0.000000
vn -0.770668 -0.637237 0.000000
vn -0.770668 -0.637237 -0.000000
vn -0.601169 -0.799122 -0.000000
vn -0.601169 -0.799122 -0.000000
vn -0.503375 -0.864068 -0.000000
vn -0.503375 -0.864068 -0.000000
vn 0.864069 -0.503374 -0.000000
vn 0.864068 -0.503375 0.000000
vn 0.345140 0.938551 0.000000
vn 0.117853 0.993031 -0.000000
vn 0.345139 0.938551 -0.000000
vn 0.554130 0.832430 0.000000
vn 0.554130 0.832430 -0.000000
vn 0.732674 0.680580 0.000000
vn 0.732674 0.680580 -0.000000
vn 0.870966 0.491343 0.000000
vn 0.870966 0.491343 -0.000000
vn 0.961413 0.275110 0.000000
vn 0.961413 0.275109 -0.000000
vn 0.999035 0.043920 0.000000
vn 0.999035 0.043920 0.000000
vn 0.975820 -0.218578 -0.000000
vn 0.975820 -0.218578 0.000000
vn 0.870622 -0.491952 -0.000000
vn 0.870622 -0.491952 0.000000
vn 0.711882 -0.702299 -0.000000
vn 0.711882 -0.702299 0.000000
vn 0.528987 -0.848630 -0.000000
vn 0.528988 -0.848629 0.000000
vn 0.316921 -0.948452 -0.000000
vn 0.316921 -0.948452 0.000000
vn 0.087443 -0.996170 -0.000000
vn 0.087443 -0.996170 0.000000
vn -0.203254 -0.979125 -0.001360
vn -0.146838 -0.989161 0.000000
vn -0.356052 -0.934466 -0.001077
vn -0.538231 -0.842797 -0.001052
vn -0.562775 -0.826610 -0.001047
vn -0.752696 -0.658368 0.000000
vn -0.752696 -0.658368 0.000000
vn -0.885270 -0.465077 0.000000
vn -0.885270 -0.465077 -0.000000
vn -0.969210 -0.246237 -0.000000
vn -0.999904 -0.013869 -0.000000
vn -0.999904 -0.013868 0.000000
vn -0.975666 0.219262 0.000000
vn -0.975666 0.219262 0.000000
vn -0.897830 0.440343 -0.000000
vn -0.897830 0.440342 0.000000
vn -0.770668 0.637237 -0.000000
vn -0.770668 0.637237 0.000000
vn -0.600946 0.799290 -0.000000
vn -0.600946 0.799290 0.000000
vn -0.502896 0.864347 -0.000000
vn -0.502896 0.864347 0.000000
vn -0.345142 -0.938550 0.000000
vn -0.345142 -0.938551 -0.000000
vn -0.117630 -0.993058 -0.000000
vn -0.554129 -0.832431 0.000000
vn -0.554129 -0.832431 0.000000
vn -0.732673 -0.680581 0.000000
vn -0.732673 -0.680581 0.000000
vn -0.870967 -0.491342 0.000001
vn -0.870967 -0.491341 -0.000000
vn -0.961413 -0.275108 0.000001
vn -0.961413 -0.275109 -0.000000
vn -0.999042 -0.043764 0.000001
vn -0.999042 -0.043764 -0.000000
vn -0.975785 0.218732 0.000001
vn -0.975785 0.218733 -0.000000
vn -0.870699 0.491816 0.000001
vn -0.870699 0.491815 -0.000000
vn -0.711994 0.702186 0.000001
vn -0.711994 0.702186 -0.000000
vn -0.528988 0.848629 0.000001
vn -0.528988 0.848629 -0.000000
vn -0.316920 0.948452 0.000000
vn -0.316920 0.948452 -0.000000
vn -0.087443 0.996170 0.000000
vn -0.087443 0.996170 -0.000000
vn 0.203217 0.979133 0.001391
vn 0.146838 0.989161 0.000000
vn 0.356074 0.934457 0.001098
vn 0.538230 0.842797 0.001071
vn 0.562774 0.826610 0.001067
vn 0.752697 0.658367 -0.000001
vn 0.752697 0.658367 0.000000
vn 0.885270 0.465077 -0.000001
vn 0.885270 0.465077 0.000000
vn 0.969209 0.246239 -0.000001
vn 0.969209 0.246238 0.000000
vn 0.999904 0.013871 -0.000000
vn 0.999904 0.013871 -0.000000
vn 0.975667 -0.219260 -0.000000
vn 0.975667 -0.219260 -0.000000
vn 0.897829 -0.440343 0.000000
vn 0.897829 -0.440343 -0.000000
vn 0.770668 -0.637237 0.000000
vn 0.770668 -0.637237 -0.000000
vn 0.601168 -0.799123 -0.000000
vn 0.601168 -0.799123 0.000000
vn 0.503375 -0.864068 -0.000000
vn 0.503375 -0.864068 0.000000
vn 0.000000 1.000000 -0.000237
vn -0.117877 0.993028 -0.000092
vn -0.117903 0.993025 -0.000092
vn 0.000000 1.000000 -0.000237
vn -0.345140 0.938551 0.000000
vn -0.345140 0.938551 0.000000
vn -0.554129 0.832431 0.000000
vn -0.554129 0.832431 0.000000
vn -0.732674 0.680580 -0.000000
vn -0.732673 0.680580 -0.000000
vn -0.870967 0.491341 -0.000000
vn -0.870967 0.491341 -0.000000
vn -0.961413 0.275109 0.000000
vn -0.961413 0.275109 0.000000
vn -0.999035 0.043920 0.000000
vn -0.999035 0.043921 0.000000
vn -0.975820 -0.218578 0.000000
vn -0.975820 -0.218578 -0.000000
vn -0.870623 -0.491952 0.000000
vn -0.870623 -0.491951 -0.000000
vn -0.711883 -0.702299 -0.000000
vn -0.711883 -0.702299 -0.000000
vn -0.528987 -0.848630 0.000000
vn -0.528987 -0.848630 0.000000
vn -0.316920 -0.948452 0.000000
vn -0.395058 -0.918656 0.000000
vn -0.087443 -0.996170 0.000000
vn 0.228971 -0.973433 -0.000000
vn 0.146838 -0.989161 0.000000
vn 0.373053 -0.927810 -0.000000
vn 0.373053 -0.927810 -0.000000
vn 0.578773 -0.815489 -0.000000
vn 0.578773 -0.815489 -0.000000
vn 0.752697 -0.658367 -0.000000
vn 0.752697 -0.658367 -0.000000
vn 0.885270 -0.465077 0.000000
vn 0.885270 -0.465077 0.000000
vn 0.969210 -0.246237 0.000000
vn 0.954127 -0.299402 0.000000
vn 0.999904 -0.013869 -0.000000
vn 0.962064 0.272822 -0.000000
vn 0.975666 0.219260 -0.000000
vn 0.897829 0.440344 -0.000000
vn 0.897829 0.440344 -0.000000
vn 0.770668 0.637237 -0.000000
vn 0.770668 0.637237 -0.000000
vn 0.600947 0.799289 -0.000000
vn 0.600947 0.799289 -0.000000
vn 0.502895 0.864348 -0.000000
vn 0.502895 0.864348 -0.000000
vn 0.000000 0.000000 -1.000000
vn -0.577752 0.120139 -0.807322
vn -0.610436 0.126935 -0.781828
vn 0.034298 0.390691 -0.919882
vn 0.034293 0.390692 -0.919882
vn 0.589847 0.017645 -0.807322
vn 0.623216 0.018643 -0.781828
vn -0.061667 -0.466840 -0.882189
vn -0.063826 -0.483185 -0.873189
vn -0.178947 0.002482 -0.983856
vn -0.178947 0.002482 -0.983856
vn -0.048694 0.468370 -0.882190
vn -0.050399 0.484769 -0.873189
vn 0.117877 0.993028 -0.000048
vn 0.001381 0.999999 -0.000148
vn 0.001435 0.999999 -0.000148
vn 0.117904 0.993025 -0.000048
vn -0.000879 -1.000000 -0.000000
vn -0.000879 -1.000000 -0.000000
vn -0.117630 -0.993058 -0.000000
vn -0.117630 -0.993058 -0.000000
vn -0.864044 -0.503417 -0.000000
vn -0.864050 -0.503406 0.000000
vn -0.864050 -0.503406 0.000000
vn -0.000000 -1.000000 -0.000000
vn 0.117630 -0.993057 0.000000
vn 0.345142 -0.938550 0.000000
vn 0.554129 -0.832431 -0.000000
vn 0.732673 -0.680581 -0.000000
vn 0.870967 -0.491341 -0.000000
vn 0.961413 -0.275108 -0.000000
vn 0.999042 -0.043762 0.000000
vn 0.975785 0.218732 0.000000
vn 0.870700 0.491814 0.000000
vn 0.711993 0.702186 0.000000
vn 0.528988 0.848630 0.000000
vn 0.316920 0.948452 -0.000000
vn 0.087443 0.996170 -0.000000
vn -0.146838 0.989161 -0.000000
vn -0.373052 0.927810 -0.000000
vn -0.578773 0.815489 -0.000000
vn -0.752697 0.658367 -0.000000
vn -0.885270 0.465077 0.000000
vn -0.969210 0.246237 0.000000
vn -0.999904 0.013870 -0.000000
vn -0.975667 -0.219260 -0.000000
vn -0.897829 -0.440344 -0.000000
vn -0.770668 -0.637237 0.000000
vn -0.601169 -0.799122 0.000000
vn -0.503375 -0.864068 0.000000
vn 0.864068 -0.503375 0.000000
vn 0.345140 0.938551 -0.000000
vn 0.554130 0.832430 -0.000000
vn 0.732674 0.680580 0.000000
vn 0.870966 0.491342 0.000000
vn 0.961413 0.275108 0.000000
vn 0.999035 0.043919 -0.000000
vn 0.975820 -0.218578 -0.000000
vn 0.870622 -0.491952 -0.000000
vn 0.711882 -0.702299 -0.000000
vn 0.528988 -0.848629 -0.000000
vn 0.316921 -0.948452 -0.000000
vn 0.087443 -0.996170 -0.000000
vn -0.146838 -0.989161 -0.000000
vn -0.373053 -0.927810 -0.000000
vn -0.578773 -0.815489 -0.000000
vn -0.752696 -0.658369 -0.000000
vn -0.885270 -0.465077 -0.000000
vn -0.999904 -0.013868 -0.000000
vn -0.975666 0.219262 -0.000000
vn -0.897830 0.440342 -0.000000
vn -0.770668 0.637237 0.000000
vn -0.600946 0.799290 0.000000
vn -0.502896 0.864347 0.000000
vn -0.345142 -0.938551 -0.000000
vn -0.554128 -0.832431 -0.000000
vn -0.732673 -0.680581 -0.000000
vn -0.870968 -0.491341 -0.000000
vn -0.961413 -0.275109 0.000000
vn -0.999042 -0.043764 0.000000
vn -0.975785 0.218733 -0.000000
vn -0.870700 0.491815 0.000000
vn -0.711994 0.702186 0.000000
vn -0.528988 0.848630 0.000000
vn -0.316920 0.948452 0.000000
vn -0.087443 0.996170 0.000000
vn 0.146838 0.989161 0.000000
vn 0.373052 0.927811 0.000000
vn 0.578772 0.815489 0.000000
vn 0.752697 0.658367 0.000000
vn 0.885271 0.465077 0.000000
vn 0.969209 0.246238 0.000000
vn 0.999904 0.013871 0.000000
vn 0.975667 -0.219260 -0.000000
vn 0.897829 -0.440343 -0.000000
vn 0.770668 -0.637237 -0.000000
vn 0.601168 -0.799122 -0.000000
vn 0.503376 -0.864068 -0.000000
vn -0.117853 0.993031 -0.000000
vn -0.000000 1.000000 -0.000000
vn -0.345140 0.938551 -0.000000
vn -0.554129 0.832431 -0.000000
vn -0.732674 0.680580 0.000000
vn -0.870967 0.491341 0.000000
vn -0.961413 0.275109 0.000000
vn -0.999035 0.043920 0.000000
vn -0.975820 -0.218578 0.000000
vn -0.870623 -0.491952 0.000000
vn -0.711883 -0.702299 0.000000
vn -0.512353 -0.858774 -0.001047
vn -0.299551 -0.954080 -0.001077
vn -0.087443 -0.996170 0.000000
vn 0.128754 -0.991676 -0.001077
vn 0.354905 -0.934902 -0.001047
vn 0.578773 -0.815489 0.000000
vn 0.752697 -0.658367 0.000000
vn 0.885270 -0.465077 0.000000
vn 0.969210 -0.246237 0.000000
vn 0.999904 -0.013869 0.000000
vn 0.975666 0.219260 0.000000
vn 0.897829 0.440344 0.000000
vn 0.770668 0.637237 0.000000
vn 0.600947 0.799289 0.000000
vn 0.502895 0.864348 0.000000
vn 0.001333 0.999999 0.000000
vn 0.001391 0.999999 0.000254
vn -0.000879 -1.000000 0.000000
vn -0.864062 -0.503386 -0.000000
vn -0.864062 -0.503386 -0.000000
vn 0.117630 -0.993057 -0.000000
vn 0.000000 -1.000000 0.000000
vn 0.345142 -0.938550 -0.000000
vn 0.554129 -0.832431 -0.000000
vn 0.732673 -0.680580 0.000000
vn 0.870967 -0.491341 0.000000
vn 0.961413 -0.275109 0.000000
vn 0.999042 -0.043763 -0.000000
vn 0.975785 0.218732 -0.000000
vn 0.870700 0.491814 -0.000000
vn 0.711993 0.702186 -0.000000
vn 0.515326 0.856994 0.000000
vn -0.358143 0.933667 0.000000
vn -0.578773 0.815489 0.000000
vn -0.752697 0.658367 0.000000
vn -0.885270 0.465077 0.000000
vn -0.969210 0.246237 0.000000
vn -0.999904 0.013869 0.000000
vn -0.975667 -0.219260 0.000000
vn -0.897829 -0.440344 0.000000
vn -0.770668 -0.637237 -0.000000
vn -0.601169 -0.799122 -0.000000
vn -0.503375 -0.864068 -0.000000
vn 0.864069 -0.503374 -0.000000
vn 0.864069 -0.503374 -0.000000
vn 0.345140 0.938551 0.000000
vn 0.554130 0.832430 0.000000
vn 0.732674 0.680580 0.000000
vn 0.870967 0.491342 0.000000
vn 0.961413 0.275109 0.000000
vn 0.975820 -0.218578 -0.000000
vn 0.870622 -0.491952 -0.000000
vn 0.711882 -0.702299 -0.000000
vn 0.528987 -0.848630 -0.000000
vn 0.316921 -0.948452 -0.000000
vn 0.138494 -0.990363 -0.000000
vn -0.566275 -0.824217 0.000000
vn -0.752696 -0.658368 0.000000
vn -0.885270 -0.465077 0.000000
vn -0.999904 -0.013869 -0.000000
vn -0.975666 0.219262 0.000000
vn -0.897830 0.440343 0.000000
vn -0.770668 0.637237 0.000000
vn -0.600946 0.799290 0.000000
vn -0.502895 0.864347 0.000000
vn -0.345142 -0.938551 0.000001
vn -0.554129 -0.832431 0.000000
vn -0.732673 -0.680581 0.000001
vn -0.870967 -0.491342 0.000002
vn -0.961413 -0.275108 0.000002
vn -0.999042 -0.043764 0.000002
vn -0.975785 0.218732 0.000002
vn -0.870699 0.491816 0.000002
vn -0.711994 0.702186 0.000001
vn -0.528988 0.848629 0.000001
vn -0.316920 0.948452 0.000001
vn -0.137814 0.990458 0.000000
vn 0.565636 0.824655 -0.000002
vn 0.752697 0.658367 -0.000002
vn 0.885270 0.465077 -0.000003
vn 0.969209 0.246239 -0.000002
vn 0.999904 0.013871 -0.000001
vn 0.975667 -0.219260 -0.000000
vn 0.897829 -0.440343 -0.000000
vn 0.770668 -0.637237 -0.000000
vn 0.601168 -0.799123 -0.000000
vn 0.503375 -0.864068 -0.000001
vn 0.001374 0.999999 0.000206
vn -0.000879 -1.000000 0.000000
vn 0.025587 -0.004014 0.999665
vn -0.029410 -0.000729 0.999567
vn 0.001333 0.999999 0.000000
vn 0.001381 0.999999 -0.000206
vn 0.001333 0.999999 -0.000000
vn -0.000879 -1.000000 -0.000000
vn -0.000879 -1.000000 -0.000000
vn -0.000879 -1.000000 0.000000
vn 0.001445 0.999999 0.000269
vn -0.000879 -1.000000 0.000000
vn -0.000879 -1.000000 0.000000
vn -0.394097 0.022653 0.918790
vn -0.417416 0.023994 0.908399
vn 0.001381 0.999999 -0.000252
vn -0.000000 -1.000000 -0.000000
vn -0.000879 -1.000000 -0.000000
vn -0.000879 -1.000000 -0.000000
vn -0.000879 -1.000000 -0.000000
vn 0.117630 -0.993057 0.000000
vn 0.345142 -0.938550 0.000000
vn 0.554129 -0.832431 0.000000
vn 0.732673 -0.680580 -0.000000
vn 0.870967 -0.491341 -0.000000
vn 0.961413 -0.275109 -0.000000
vn 0.999042 -0.043763 0.000000
vn 0.975785 0.218732 0.000000
vn 0.870700 0.491814 0.000000
vn 0.711993 0.702186 0.000000
vn 0.528987 0.848630 -0.000000
vn 0.394575 0.918864 -0.000000
vn -0.228460 0.973553 0.000000
vn -0.373052 0.927810 -0.000000
vn -0.578773 0.815489 -0.000000
vn -0.752697 0.658367 0.000000
vn -0.885270 0.465077 0.000000
vn -0.954334 0.298742 0.000000
vn -0.962253 -0.272157 -0.000000
vn -0.897829 -0.440344 -0.000000
vn -0.770668 -0.637237 0.000000
vn -0.601169 -0.799122 0.000000
vn -0.503375 -0.864068 0.000000
vn 0.864068 -0.503375 -0.000000
vn 0.345140 0.938551 -0.000000
vn 0.554130 0.832430 0.000000
vn 0.732674 0.680580 0.000000
vn 0.870967 0.491342 0.000001
vn 0.961413 0.275108 0.000000
vn 0.999035 0.043919 -0.000000
vn 0.975820 -0.218578 -0.000001
vn 0.870622 -0.491952 -0.000001
vn 0.711882 -0.702299 -0.000000
vn 0.528988 -0.848629 -0.000000
vn 0.316921 -0.948452 -0.000000
vn 0.087443 -0.996170 -0.000000
vn -0.146838 -0.989161 -0.000000
vn -0.373053 -0.927810 -0.000000
vn -0.578773 -0.815489 -0.000000
vn -0.752696 -0.658369 -0.000000
vn -0.885270 -0.465077 -0.000000
vn -0.969210 -0.246237 -0.000000
vn -0.999904 -0.013868 -0.000000
vn -0.975666 0.219262 -0.000001
vn -0.897830 0.440342 -0.000000
vn -0.600946 0.799290 0.000000
vn -0.502895 0.864347 0.000000
vn -0.345142 -0.938551 0.000000
vn -0.554128 -0.832431 -0.000000
vn -0.732673 -0.680581 -0.000000
vn -0.870968 -0.491341 -0.000000
vn -0.961413 -0.275109 0.000000
vn -0.999042 -0.043764 0.000000
vn -0.975785 0.218733 -0.000000
vn -0.870700 0.491815 0.000000
vn -0.316920 0.948452 0.000000
vn -0.087443 0.996170 0.000000
vn 0.146838 0.989161 0.000000
vn 0.373052 0.927811 0.000000
vn 0.578772 0.815489 0.000000
vn 0.752697 0.658367 0.000000
vn 0.885271 0.465077 0.000000
vn 0.969209 0.246238 0.000001
vn 0.999904 0.013871 0.000000
vn 0.897829 -0.440343 -0.000000
vn 0.770668 -0.637237 -0.000000
vn 0.601168 -0.799122 -0.000000
vn 0.503376 -0.864068 -0.000000
vn 0.001435 0.999999 -0.000206
vn 0.001435 0.999999 -0.000252

# Mesh
g Plane001
usemtl DefaultMaterial
f 4/4/4 1/1/1 2/2/2 3/3/3
f 6/6/6 5/5/5 1/1/1 4/4/4
f 8/8/8 7/7/7 5/5/5 6/6/6
f 10/10/10 9/9/9 7/7/7 8/8/8
f 12/12/12 11/11/11 9/9/9 10/10/10
f 14/14/14 13/13/13 11/11/11 12/12/12
f 16/16/16 15/15/15 13/13/13 14/14/14
f 15/15/15 16/16/16 18/18/18 17/17/17
f 17/17/17 18/18/18 20/20/20 19/19/19
f 19/19/19 20/20/20 22/22/22 21/21/21
f 21/21/21 22/22/22 24/24/24 23/23/23
f 25/25/25 23/23/23 24/24/24
f 26/26/26 27/27/27 25/25/25
f 27/27/27 26/26/26 29/29/29 28/28/28
f 28/28/28 29/29/29 31/31/31 30/30/30
f 30/30/30 31/31/31 33/33/33 32/32/32
f 32/32/32 33/33/33 35/35/35 34/34/34
f 34/34/34 35/35/35 37/37/37 36/36/36
f 39/39/39 38/38/38 36/36/36 37/37/37
f 41/41/41 40/40/40 38/38/38 39/39/39
f 43/43/43 42/42/42 40/40/40 41/41/41
f 45/45/45 44/44/44 42/42/42 43/43/43
f 47/47/47 46/46/46 44/44/44 45/45/45
f 49/50/48 4/51/48 3/48/48 48/49/48
f 50/53/48 6/52/48 4/51/48 49/50/48
f 51/55/48 8/54/48 6/52/48 50/53/48
f 52/57/48 10/56/48 8/54/48 51/55/48
f 53/59/48 12/58/48 10/56/48 52/57/48
f 54/61/48 14/60/48 12/58/48 53/59/48
f 55/63/48 16/62/48 14/60/48 54/61/48
f 55/63/48 56/65/48 18/64/48 16/62/48
f 18/64/48 56/65/48 57/67/48 20/66/48
f 20/66/48 57/67/48 58/69/48 22/68/48
f 22/68/48 58/69/48 59/71/50 24/70/49
f 24/70/49 59/71/50 60/73/52 25/72/51
f 25/72/51 60/73/52 61/75/54 26/74/53
f 26/74/53 61/75/54 62/77/48 29/76/48
f 29/76/48 62/77/48 63/79/48 31/78/48
f 31/78/48 63/79/48 64/81/48 33/80/48
f 33/80/48 64/81/48 65/83/48 35/82/48
f 35/82/48 65/83/48 66/85/48 37/84/48
f 67/87/48 39/86/48 37/84/48 66/85/48
f 68/89/48 41/88/48 39/86/48 67/87/48
f 69/91/48 43/90/48 41/88/48 68/89/48
f 70/93/48 45/92/48 43/90/48 69/91/48
f 71/95/48 47/94/48 45/92/48 70/93/48
f 72/96/55 73/97/56 74/98/57 75/99/58
f 77/101/60 78/102/61 79/103/62 76/100/59
f 78/105/63 72/106/64 75/107/48 79/104/48
f 79/104/48 75/107/48 80/108/48 81/109/48
f 81/109/48 80/108/48 82/110/48 83/111/48
f 83/111/48 82/110/48 84/112/48 85/113/48
f 85/113/48 84/112/48 86/114/48 87/115/48
f 87/115/48 86/114/48 88/116/48 89/117/48
f 89/117/48 88/116/48 90/118/48 91/119/48
f 90/118/48 92/120/48 93/121/48 91/119/48
f 94/122/48 95/123/48 93/121/48 92/120/48
f 96/124/48 97/125/48 95/123/48 94/122/48
f 98/126/48 99/127/48 97/125/48 96/124/48
f 100/128/48 101/129/48 99/127/48 98/126/48
f 102/130/65 103/131/66 101/129/48 100/128/48
f 104/132/67 105/133/68 103/131/66 102/130/65
f 106/134/69 107/135/70 105/133/68 104/132/67
f 108/136/48 109/137/48 107/135/70 106/134/69
f 110/138/48 111/139/48 109/137/48 108/136/48
f 112/140/48 113/141/48 111/139/48 110/138/48
f 114/142/48 115/143/48 113/141/48 112/140/48
f 115/143/48 114/142/48 116/144/48 117/145/48
f 117/145/48 116/144/48 118/146/48 119/147/48
f 119/147/48 118/146/48 120/148/48 121/149/48
f 121/149/48 120/148/48 122/150/48 123/151/48
f 125/153/72 126/154/73 127/155/74 124/152/71
f 123/151/48 122/150/48 127/156/48 126/157/48
f 131/161/78 128/158/75 129/159/76 130/160/77
f 133/163/80 132/162/79 128/158/75 131/161/78
f 135/165/82 134/164/81 132/162/79 133/163/80
f 137/167/84 136/166/83 134/164/81 135/165/82
f 139/169/86 138/168/85 136/166/83 137/167/84
f 141/171/88 140/170/87 138/168/85 139/169/86
f 143/173/90 142/172/89 140/170/87 141/171/88
f 142/172/89 143/173/90 145/175/92 144/174/91
f 144/174/91 145/175/92 147/177/94 146/176/93
f 146/176/93 147/177/94 149/179/96 148/178/95
f 148/178/95 149/179/96 151/181/98 150/180/97
f 150/180/97 151/181/98 152/183/100 60/182/99
f 153/184/101 60/182/99 152/183/100
f 154/185/102 60/182/99 153/184/101
f 60/182/99 154/185/102 156/187/104 155/186/103
f 155/186/103 156/187/104 158/189/106 157/188/105
f 157/188/105 158/189/106 160/191/108 159/190/107
f 159/190/107 160/191/108 162/193/110 161/192/109
f 161/192/109 162/193/110 164/195/112 163/194/111
f 163/194/111 164/195/112 166/197/114 165/196/113
f 168/199/116 167/198/115 165/196/113 166/197/114
f 170/201/118 169/200/117 167/198/115 168/199/116
f 172/203/120 171/202/119 169/200/117 170/201/118
f 174/205/122 173/204/121 171/202/119 172/203/120
f 176/207/124 175/206/123 173/204/121 174/205/122
f 177/211/126 46/208/125 175/209/125 176/210/126
f 74/98/57 179/213/128 180/214/129 178/212/127
f 178/212/127 180/214/129 182/216/131 181/215/130
f 181/215/130 182/216/131 184/218/133 183/217/132
f 183/217/132 184/218/133 186/220/135 185/219/134
f 185/219/134 186/220/135 188/222/137 187/221/136
f 187/221/136 188/222/137 190/224/139 189/223/138
f 192/226/141 191/225/140 189/223/138 190/224/139
f 194/228/143 193/227/142 191/225/140 192/226/141
f 196/230/145 195/229/144 193/227/142 194/228/143
f 198/232/147 197/231/146 195/229/144 196/230/145
f 200/234/149 199/233/148 197/231/146 198/232/147
f 202/236/151 201/235/150 199/233/148 200/234/149
f 203/238/153 104/237/152 201/235/150 202/236/151
f 204/239/154 104/237/152 203/238/153
f 206/241/156 205/240/155 104/237/152 204/239/154
f 208/243/158 207/242/157 205/240/155 206/241/156
f 210/245/160 209/244/159 207/242/157 208/243/158
f 212/247/161 211/246/161 209/244/159 210/245/160
f 214/249/163 213/248/162 211/246/161 212/247/161
f 213/248/162 214/249/163 216/251/165 215/250/164
f 215/250/164 216/251/165 218/253/167 217/252/166
f 217/252/166 218/253/167 220/255/169 219/254/168
f 219/254/168 220/255/169 222/257/171 221/256/170
f 221/256/170 222/257/171 223/259/173 124/258/172
f 226/262/176 76/100/59 224/260/174 225/261/175
f 225/261/175 224/260/174 227/263/177 228/264/178
f 228/264/178 227/263/177 229/265/179 230/266/180
f 230/266/180 229/265/179 231/267/181 232/268/182
f 232/268/182 231/267/181 233/269/183 234/270/184
f 234/270/184 233/269/183 235/271/185 236/272/186
f 237/273/187 238/274/188 236/272/186 235/271/185
f 239/275/189 240/276/190 238/274/188 237/273/187
f 241/277/191 242/278/192 240/276/190 239/275/189
f 243/279/193 244/280/194 242/278/192 241/277/191
f 245/281/195 246/282/196 244/280/194 243/279/193
f 247/283/197 248/284/198 246/282/196 245/281/195
f 105/285/199 249/286/200 248/284/198 247/283/197
f 249/286/200 105/285/199 250/287/201
f 251/288/202 252/289/203 250/287/201 105/285/199
f 253/290/204 254/291/205 252/289/203 251/288/202
f 255/292/206 256/293/207 254/291/205 253/290/204
f 257/294/208 258/295/209 256/293/207 255/292/206
f 259/296/210 260/297/211 258/295/209 257/294/208
f 260/297/211 259/296/210 261/298/212 262/299/213
f 262/299/213 261/298/212 263/300/214 264/301/215
f 264/301/215 263/300/214 265/302/216 266/303/217
f 266/303/217 265/302/216 267/304/218 268/305/219
f 268/305/219 267/304/218 125/306/220 269/307/221
f 271/309/223 272/310/224 273/311/225 270/308/222
f 274/312/226 275/313/227 272/310/224 271/309/223
f 276/314/228 277/315/229 275/313/227 274/312/226
f 278/316/230 279/317/231 277/315/229 276/314/228
f 280/318/232 281/319/233 279/317/231 278/316/230
f 282/320/234 283/321/235 281/319/233 280/318/232
f 284/322/236 285/323/237 283/321/235 282/320/234
f 285/323/237 284/322/236 286/324/238 287/325/239
f 287/325/239 286/324/238 288/326/240 289/327/241
f 289/327/241 288/326/240 290/328/242 291/329/243
f 291/329/243 290/328/242 292/330/244 293/331/245
f 293/331/245 292/330/244 294/332/246 295/333/247
f 295/333/247 294/332/246 296/334/248
f 297/335/249 296/334/248 298/336/250
f 297/335/249 298/336/250 299/337/251 300/338/252
f 300/338/252 299/337/251 301/339/253 302/340/254
f 302/340/254 301/339/253 303/341/255 304/342/256
f 304/342/256 303/341/255 305/343/257 306/344/258
f 306/344/258 305/343/257 307/345/259 308/346/260
f 308/346/260 307/345/259 309/347/261
f 310/348/262 309/347/261 311/349/263
f 312/350/264 313/351/265 310/348/262 311/349/263
f 314/352/266 315/353/267 313/351/265 312/350/264
f 316/354/268 317/355/269 315/353/267 314/352/266
f 318/356/270 319/357/271 317/355/269 316/354/268
f 272/361/272 320/358/272 321/359/272 273/360/272
f 275/362/272 322/363/272 320/358/272 272/361/272
f 277/364/272 323/365/272 322/363/272 275/362/272
f 279/366/272 324/367/272 323/365/272 277/364/272
f 281/368/272 325/369/272 324/367/272 279/366/272
f 283/370/272 326/371/272 325/369/272 281/368/272
f 285/372/272 327/373/272 326/371/272 283/370/272
f 328/375/272 327/373/272 285/372/272 287/374/272
f 328/375/272 287/374/272 289/376/272 329/377/272
f 329/377/272 289/376/272 291/378/272 330/379/272
f 330/379/272 291/378/272 293/380/272 331/381/272
f 331/381/272 293/380/272 295/382/273 332/383/274
f 332/383/274 295/382/273 296/384/275 333/385/276
f 333/385/276 296/384/275 297/386/277 334/387/278
f 334/387/278 297/386/277 300/388/272 335/389/272
f 335/389/272 300/388/272 302/390/272 336/391/272
f 336/391/272 302/390/272 304/392/272 337/393/272
f 337/393/272 304/392/272 306/394/272 338/395/272
f 338/395/272 306/394/272 308/396/279 339/397/280
f 339/397/280 308/396/279 309/398/281 340/399/282
f 310/400/283 341/401/284 340/399/282 309/398/281
f 313/402/272 342/403/272 341/401/284 310/400/283
f 315/404/272 343/405/272 342/403/272 313/402/272
f 317/406/272 344/407/272 343/405/272 315/404/272
f 319/408/272 345/409/272 344/407/272 317/406/272
f 347/411/286 348/412/287 349/413/288 346/410/285
f 350/414/289 351/415/290 352/416/291 353/417/292
f 273/421/272 321/418/272 354/419/272 355/420/272
f 349/425/272 353/422/272 356/423/272 357/424/272
f 357/424/272 356/423/272 358/426/272 359/427/272
f 359/427/272 358/426/272 360/428/272 361/429/272
f 361/429/272 360/428/272 362/430/272 363/431/272
f 363/431/272 362/430/272 364/432/272 365/433/272
f 365/433/272 364/432/272 366/434/272 367/435/272
f 369/437/272 367/435/272 366/434/272 368/436/272
f 370/438/272 371/439/272 369/437/272 368/436/272
f 372/440/272 373/441/272 371/439/272 370/438/272
f 374/442/272 375/443/272 373/441/272 372/440/272
f 376/444/272 377/445/272 375/443/272 374/442/272
f 378/446/272 379/447/272 377/445/272 376/444/272
f 380/448/272 381/449/272 379/447/272 378/446/272
f 382/450/272 383/451/272 381/449/272 380/448/272
f 384/452/272 385/453/272 383/451/272 382/450/272
f 386/454/272 387/455/272 385/453/272 384/452/272
f 388/456/272 389/457/272 387/455/272 386/454/272
f 390/458/272 391/459/272 389/457/272 388/456/272
f 392/460/272 393/461/272 391/459/272 390/458/272
f 393/461/272 392/460/272 394/462/272 395/463/272
f 395/463/272 394/462/272 396/464/272 397/465/272
f 397/465/272 396/464/272 398/466/272 399/467/272
f 399/467/272 398/466/272 400/468/272 401/469/272
f 402/470/293 403/471/294 404/472/295 405/473/293
f 401/469/272 400/468/272 402/474/272 405/475/272
f 407/477/297 131/161/78 130/160/77 406/476/296
f 408/478/298 133/163/80 131/161/78 407/477/297
f 409/479/299 135/165/82 133/163/80 408/478/298
f 410/480/300 137/167/84 135/165/82 409/479/299
f 411/481/301 139/169/86 137/167/84 410/480/300
f 412/482/302 141/171/88 139/169/86 411/481/301
f 413/483/303 143/173/90 141/171/88 412/482/302
f 143/173/90 413/483/303 414/484/304 145/175/92
f 145/175/92 414/484/304 415/485/305 147/177/94
f 147/177/94 415/485/305 416/486/306 149/179/96
f 149/179/96 416/486/306 417/487/307 151/181/98
f 151/181/98 417/487/307 418/488/308 152/183/100
f 152/183/100 418/488/308 333/489/309 153/184/101
f 153/184/101 333/489/309 419/490/310 154/185/102
f 154/185/102 419/490/310 420/491/311 156/187/104
f 156/187/104 420/491/311 421/492/312 158/189/106
f 158/189/106 421/492/312 422/493/313 160/191/108
f 160/191/108 422/493/313 423/494/314 162/193/110
f 162/193/110 423/494/314 424/495/315 164/195/112
f 164/195/112 424/495/315 340/496/316 166/197/114
f 425/497/317 168/199/116 166/197/114 340/496/316
f 426/498/318 170/201/118 168/199/116 425/497/317
f 427/499/319 172/203/120 170/201/118 426/498/318
f 428/500/320 174/205/122 172/203/120 427/499/319
f 429/501/321 176/207/124 174/205/122 428/500/320
f 318/504/322 177/505/126 176/502/126 429/503/322
f 179/213/128 346/410/285 430/506/323 180/214/129
f 180/214/129 430/506/323 431/507/324 182/216/131
f 182/216/131 431/507/324 432/508/325 184/218/133
f 184/218/133 432/508/325 433/509/326 186/220/135
f 186/220/135 433/509/326 434/510/327 188/222/137
f 188/222/137 434/510/327 435/511/328 190/224/139
f 436/512/329 192/226/141 190/224/139 435/511/328
f 437/513/330 194/228/143 192/226/141 436/512/329
f 438/514/331 196/230/145 194/228/143 437/513/330
f 439/515/332 198/232/147 196/230/145 438/514/331
f 440/516/333 200/234/149 198/232/147 439/515/332
f 441/517/334 202/236/151 200/234/149 440/516/333
f 442/518/335 203/238/153 202/236/151 441/517/334
f 443/519/336 204/239/154 203/238/153 442/518/335
f 444/520/337 206/241/156 204/239/154 443/519/336
f 445/521/338 208/243/158 206/241/156 444/520/337
f 446/522/339 210/245/160 208/243/158 445/521/338
f 447/523/161 212/247/161 210/245/160 446/522/339
f 448/524/340 214/249/163 212/247/161 447/523/161
f 214/249/163 448/524/340 449/525/341 216/251/165
f 216/251/165 449/525/341 450/526/342 218/253/167
f 218/253/167 450/526/342 451/527/343 220/255/169
f 220/255/169 451/527/343 452/528/344 222/257/171
f 222/257/171 452/528/344 404/529/345 223/259/173
f 352/416/291 226/262/176 225/261/175 453/530/346
f 453/530/346 225/261/175 228/264/178 454/531/347
f 454/531/347 228/264/178 230/266/180 455/532/348
f 455/532/348 230/266/180 232/268/182 456/533/349
f 456/533/349 232/268/182 234/270/184 457/534/350
f 457/534/350 234/270/184 236/272/186 458/535/351
f 238/274/188 459/536/352 458/535/351 236/272/186
f 240/276/190 460/537/353 459/536/352 238/274/188
f 242/278/192 461/538/354 460/537/353 240/276/190
f 244/280/194 462/539/355 461/538/354 242/278/192
f 246/282/196 463/540/356 462/539/355 244/280/194
f 248/284/198 464/541/357 463/540/356 246/282/196
f 249/286/200 465/542/358 464/541/357 248/284/198
f 250/287/201 466/543/359 465/542/358 249/286/200
f 252/289/203 467/544/360 466/543/359 250/287/201
f 254/291/205 468/545/361 467/544/360 252/289/203
f 256/293/207 469/546/362 468/545/361 254/291/205
f 258/295/209 470/547/363 469/546/362 256/293/207
f 260/297/211 471/548/364 470/547/363 258/295/209
f 471/548/364 260/297/211 262/299/213 472/549/365
f 472/549/365 262/299/213 264/301/215 473/550/366
f 473/550/366 264/301/215 266/303/217 474/551/367
f 474/551/367 266/303/217 268/305/219 475/552/368
f 475/552/368 268/305/219 269/307/221 403/553/369
f 1/1/1 476/554/370 477/555/371 2/2/2
f 5/5/5 478/556/372 476/554/370 1/1/1
f 7/7/7 479/557/373 478/556/372 5/5/5
f 9/9/9 480/558/374 479/557/373 7/7/7
f 11/11/11 481/559/375 480/558/374 9/9/9
f 13/13/13 482/560/376 481/559/375 11/11/11
f 15/15/15 483/561/377 482/560/376 13/13/13
f 483/561/377 15/15/15 17/17/17 484/562/378
f 484/562/378 17/17/17 19/19/19 485/563/379
f 485/563/379 19/19/19 21/21/21 486/564/380
f 486/564/380 21/21/21 23/23/23 487/565/381
f 487/565/381 23/23/23 25/25/25 488/566/382
f 25/25/25 489/567/383 488/566/382
f 25/25/25 490/568/384 489/567/383
f 490/568/384 25/25/25 27/27/27 491/569/385
f 491/569/385 27/27/27 28/28/28 492/570/386
f 492/570/386 28/28/28 30/30/30 493/571/387
f 493/571/387 30/30/30 32/32/32 494/572/388
f 494/572/388 32/32/32 34/34/34 495/573/389
f 495/573/389 34/34/34 36/36/36 496/574/390
f 38/38/38 497/575/391 496/574/390 36/36/36
f 40/40/40 498/576/392 497/575/391 38/38/38
f 42/42/42 499/577/393 498/576/392 40/40/40
f 44/44/44 500/578/394 499/577/393 42/42/42
f 46/46/46 177/579/395 500/578/394 44/44/44
f 2/2/2 477/555/371 501/580/396 502/581/397
f 503/582/398 77/101/60 76/100/59 226/262/176
f 269/584/400 125/153/72 124/152/71 223/583/399
f 128/158/75 49/585/401 48/586/402 129/159/76
f 132/162/79 50/587/403 49/585/401 128/158/75
f 134/164/81 51/588/404 50/587/403 132/162/79
f 136/166/83 52/589/405 51/588/404 134/164/81
f 138/168/85 53/590/406 52/589/405 136/166/83
f 140/170/87 54/591/407 53/590/406 138/168/85
f 142/172/89 55/592/408 54/591/407 140/170/87
f 55/592/408 142/172/89 144/174/91 56/593/409
f 56/593/409 144/174/91 146/176/93 57/594/410
f 57/594/410 146/176/93 148/178/95 58/595/411
f 58/595/411 148/178/95 150/180/97 59/596/412
f 60/182/99 59/596/412 150/180/97
f 155/186/103 61/597/413 60/182/99
f 61/597/413 155/186/103 157/188/105 62/598/414
f 62/598/414 157/188/105 159/190/107 63/599/415
f 63/599/415 159/190/107 161/192/109 64/600/416
f 64/600/416 161/192/109 163/194/111 65/601/417
f 65/601/417 163/194/111 165/196/113 66/602/418
f 167/198/115 67/603/419 66/602/418 165/196/113
f 169/200/117 68/604/420 67/603/419 167/198/115
f 171/202/119 69/605/421 68/604/420 169/200/117
f 173/204/121 70/606/422 69/605/421 171/202/119
f 175/206/123 71/607/423 70/606/422 173/204/121
f 46/208/125 47/608/424 71/609/425 175/209/125
f 75/99/58 74/98/57 178/212/127 80/610/426
f 80/610/426 178/212/127 181/215/130 82/611/427
f 82/611/427 181/215/130 183/217/132 84/612/428
f 84/612/428 183/217/132 185/219/134 86/613/429
f 86/613/429 185/219/134 187/221/136 88/614/430
f 88/614/430 187/221/136 189/223/138 90/615/138
f 191/225/140 92/616/431 90/615/138 189/223/138
f 193/227/142 94/617/432 92/616/431 191/225/140
f 195/229/144 96/618/433 94/617/432 193/227/142
f 197/231/146 98/619/434 96/618/433 195/229/144
f 199/233/148 100/620/435 98/619/434 197/231/146
f 201/235/150 102/621/436 100/620/435 199/233/148
f 104/237/152 102/621/436 201/235/150
f 205/240/155 106/622/437 104/237/152
f 207/242/157 108/623/438 106/622/437 205/240/155
f 209/244/159 110/624/439 108/623/438 207/242/157
f 211/246/161 112/625/161 110/624/439 209/244/159
f 213/248/162 114/626/440 112/625/161 211/246/161
f 114/626/440 213/248/162 215/250/164 116/627/441
f 116/627/441 215/250/164 217/252/166 118/628/442
f 118/628/442 217/252/166 219/254/168 120/629/443
f 120/629/443 219/254/168 221/256/170 122/630/444
f 122/630/444 221/256/170 124/258/172 127/631/445
f 76/100/59 79/103/62 81/632/446 224/260/174
f 224/260/174 81/632/446 83/633/447 227/263/177
f 227/263/177 83/633/447 85/634/448 229/265/179
f 229/265/179 85/634/448 87/635/449 231/267/181
f 231/267/181 87/635/449 89/636/450 233/269/183
f 233/269/183 89/636/450 91/637/451 235/271/185
f 93/638/452 237/273/187 235/271/185 91/637/451
f 95/639/453 239/275/189 237/273/187 93/638/452
f 97/640/454 241/277/191 239/275/189 95/639/453
f 99/641/455 243/279/193 241/277/191 97/640/454
f 101/642/456 245/281/195 243/279/193 99/641/455
f 103/643/457 247/283/197 245/281/195 101/642/456
f 247/283/197 103/643/457 105/285/199
f 105/285/199 107/644/458 251/288/202
f 109/645/459 253/290/204 251/288/202 107/644/458
f 111/646/460 255/292/206 253/290/204 109/645/459
f 113/647/461 257/294/208 255/292/206 111/646/460
f 115/648/462 259/296/210 257/294/208 113/647/461
f 259/296/210 115/648/462 117/649/463 261/298/212
f 261/298/212 117/649/463 119/650/464 263/300/214
f 263/300/214 119/650/464 121/651/465 265/302/216
f 265/302/216 121/651/465 123/652/466 267/304/218
f 267/304/218 123/652/466 126/653/467 125/306/220
f 72/96/55 504/654/468 73/97/56
f 77/101/60 505/655/469 78/102/61
f 505/656/470 504/657/471 72/106/64 78/105/63
f 506/658/472 507/659/473 347/411/286 508/660/474
f 509/661/475 510/662/476 351/415/290 350/414/289
f 348/663/272 350/664/272 353/422/272 349/425/272
f 73/97/56 508/660/474 179/213/128 74/98/57
f 511/665/477 505/655/469 77/101/60 503/582/398
f 355/420/272 354/419/272 509/666/272 512/667/272
f 502/581/397 501/580/396 506/658/472 504/654/468
f 3/3/3 2/2/2 502/581/397 513/668/478
f 129/159/76 48/586/402 514/669/479 515/670/480
f 48/671/48 3/672/48 513/673/481 514/674/482
f 477/555/371 270/308/222 516/675/483 501/580/396
f 321/676/484 406/476/296 517/677/485 354/678/486
f 130/160/77 129/159/76 515/670/480 518/679/487
f 504/654/468 513/668/478 502/581/397
f 505/655/469 515/670/480 514/669/479
f 514/674/482 513/673/481 504/657/471 505/656/470
f 501/580/396 516/675/483 507/659/473 506/658/472
f 354/678/486 517/677/485 510/662/476 509/661/475
f 518/679/487 515/670/480 505/655/469 511/665/477
f 512/667/272 509/666/272 350/664/272 348/663/272
f 504/654/468 506/658/472 508/660/474 73/97/56
f 476/554/370 271/309/223 270/308/222 477/555/371
f 478/556/372 274/312/226 271/309/223 476/554/370
f 479/557/373 276/314/228 274/312/226 478/556/372
f 480/558/374 278/316/230 276/314/228 479/557/373
f 481/559/375 280/318/232 278/316/230 480/558/374
f 482/560/376 282/320/234 280/318/232 481/559/375
f 483/561/377 284/322/236 282/320/234 482/560/376
f 284/322/236 483/561/377 484/562/378 286/324/238
f 286/324/238 484/562/378 485/563/379 288/326/240
f 288/326/240 485/563/379 486/564/380 290/328/242
f 290/328/242 486/564/380 487/565/381 292/330/244
f 292/330/244 487/565/381 488/566/382 294/332/246
f 294/332/246 488/566/382 489/567/383 296/334/248
f 296/334/248 489/567/383 490/568/384 298/336/250
f 298/336/250 490/568/384 491/569/385 299/337/251
f 299/337/251 491/569/385 492/570/386 301/339/253
f 301/339/253 492/570/386 493/571/387 303/341/255
f 303/341/255 493/571/387 494/572/388 305/343/257
f 305/343/257 494/572/388 495/573/389 307/345/259
f 307/345/259 495/573/389 496/574/390 309/347/261
f 497/575/391 311/349/263 309/347/261 496/574/390
f 498/576/392 312/350/264 311/349/263 497/575/391
f 499/577/393 314/352/266 312/350/264 498/576/392
f 500/578/394 316/354/268 314/352/266 499/577/393
f 177/579/395 318/356/270 316/354/268 500/578/394
f 508/660/474 347/411/286 346/410/285 179/213/128
f 351/415/290 503/582/398 226/262/176 352/416/291
f 403/471/294 269/680/400 223/681/399 404/472/295
f 320/682/488 407/477/297 406/476/296 321/676/484
f 322/683/489 408/478/298 407/477/297 320/682/488
f 323/684/490 409/479/299 408/478/298 322/683/489
f 324/685/491 410/480/300 409/479/299 323/684/490
f 325/686/492 411/481/301 410/480/300 324/685/491
f 326/687/493 412/482/302 411/481/301 325/686/492
f 327/688/494 413/483/303 412/482/302 326/687/493
f 413/483/303 327/688/494 328/689/495 414/484/304
f 414/484/304 328/689/495 329/690/496 415/485/305
f 415/485/305 329/690/496 330/691/497 416/486/306
f 416/486/306 330/691/497 331/692/498 417/487/307
f 417/487/307 331/692/498 332/693/499 418/488/308
f 418/488/308 332/693/499 333/489/309
f 333/489/309 334/694/500 419/490/310
f 419/490/310 334/694/500 335/695/501 420/491/311
f 420/491/311 335/695/501 336/696/502 421/492/312
f 421/492/312 336/696/502 337/697/503 422/493/313
f 422/493/313 337/697/503 338/698/504 423/494/314
f 423/494/314 338/698/504 339/699/505 424/495/315
f 424/495/315 339/699/505 340/496/316
f 340/496/316 341/700/506 425/497/317
f 342/701/507 426/498/318 425/497/317 341/700/506
f 343/702/508 427/499/319 426/498/318 342/701/507
f 344/703/509 428/500/320 427/499/319 343/702/508
f 345/704/510 429/501/321 428/500/320 344/703/509
f 319/706/511 318/504/322 429/503/322 345/705/511
f 346/410/285 349/413/288 357/707/512 430/506/323
f 430/506/323 357/707/512 359/708/513 431/507/324
f 431/507/324 359/708/513 361/709/514 432/508/325
f 432/508/325 361/709/514 363/710/515 433/509/326
f 433/509/326 363/710/515 365/711/516 434/510/327
f 434/510/327 365/711/516 367/712/517 435/511/328
f 369/713/518 436/512/329 435/511/328 367/712/517
f 371/714/519 437/513/330 436/512/329 369/713/518
f 373/715/520 438/514/331 437/513/330 371/714/519
f 375/716/521 439/515/332 438/514/331 373/715/520
f 377/717/522 440/516/333 439/515/332 375/716/521
f 379/718/523 441/517/334 440/516/333 377/717/522
f 381/719/524 442/518/335 441/517/334 379/718/523
f 383/720/525 443/519/336 442/518/335 381/719/524
f 385/721/526 444/520/337 443/519/336 383/720/525
f 387/722/527 445/521/338 444/520/337 385/721/526
f 389/723/528 446/522/339 445/521/338 387/722/527
f 391/724/529 447/523/161 446/522/339 389/723/528
f 393/725/530 448/524/340 447/523/161 391/724/529
f 448/524/340 393/725/530 395/726/531 449/525/341
f 449/525/341 395/726/531 397/727/532 450/526/342
f 450/526/342 397/727/532 399/728/443 451/527/343
f 451/527/343 399/728/443 401/729/533 452/528/344
f 452/528/344 401/729/533 405/730/534 404/529/345
f 353/417/292 352/416/291 453/530/346 356/731/535
f 356/731/535 453/530/346 454/531/347 358/732/536
f 358/732/536 454/531/347 455/532/348 360/733/537
f 360/733/537 455/532/348 456/533/349 362/734/538
f 362/734/538 456/533/349 457/534/350 364/735/539
f 364/735/539 457/534/350 458/535/351 366/736/540
f 459/536/352 368/737/541 366/736/540 458/535/351
f 460/537/353 370/738/542 368/737/541 459/536/352
f 461/538/354 372/739/354 370/738/542 460/537/353
f 462/539/355 374/740/355 372/739/354 461/538/354
f 463/540/356 376/741/543 374/740/355 462/539/355
f 464/541/357 378/742/544 376/741/543 463/540/356
f 465/542/358 380/743/545 378/742/544 464/541/357
f 466/543/359 382/744/546 380/743/545 465/542/358
f 467/544/360 384/745/547 382/744/546 466/543/359
f 468/545/361 386/746/548 384/745/547 467/544/360
f 469/546/362 388/747/549 386/746/548 468/545/361
f 470/547/363 390/748/550 388/747/549 469/546/362
f 471/548/364 392/749/551 390/748/550 470/547/363
f 392/749/551 471/548/364 472/549/365 394/750/213
f 394/750/213 472/549/365 473/550/366 396/751/552
f 396/751/552 473/550/366 474/551/367 398/752/553
f 398/752/553 474/551/367 475/552/368 400/753/554
f 400/753/554 475/552/368 403/553/369 402/754/555
f 507/659/473 512/755/556 348/412/287 347/411/286
f 510/662/476 511/665/477 503/582/398 351/415/290
f 270/308/222 273/311/225 355/756/557 516/675/483
f 406/476/296 130/160/77 518/679/487 517/677/485
f 516/675/483 355/756/557 512/755/556 507/659/473
f 517/677/485 518/679/487 511/665/477 510/662/476
